<?xml version="1.0" encoding="UTF-8" standalone="no"?>
<!DOCTYPE svg PUBLIC "-//W3C//DTD SVG 1.1//EN" "http://www.w3.org/Graphics/SVG/1.1/DTD/svg11.dtd">
<svg width="100%" height="100%" viewBox="0 0 714 714" version="1.1" xmlns="http://www.w3.org/2000/svg" xmlns:xlink="http://www.w3.org/1999/xlink" xml:space="preserve" xmlns:serif="http://www.serif.com/" style="fill-rule:evenodd;clip-rule:evenodd;stroke-linecap:round;stroke-linejoin:round;stroke-miterlimit:1.5;">
    <g id="Calque1" transform="matrix(1.36242,0,0,1.36207,99.2556,67.6877)">
        <g>
            <g transform="matrix(1,0,0,1,-5.19189,-7.4607e-14)">
                <path d="M207.341,75.133C186.278,72.813 172.801,83.56 155.156,90.274C125.936,101.392 103.586,111.101 89.604,142.289C78.642,166.741 72.284,198.401 74.364,224.488C76.05,245.628 79.864,262.407 90.595,280.348C100.893,297.565 122.258,309.128 136.027,323.937C155.048,344.396 189.209,353.22 214.979,348.811C240.454,344.453 265.141,336.134 284.837,320.743C303.311,306.305 325.679,292.879 337.016,270.873C343.423,258.435 350.172,244.447 349.899,230.198C349.554,212.186 330.293,180.893 323.244,164.66C317.157,150.641 322.364,154.402 313.299,142.289C305.351,131.668 301.884,113.185 292.537,103.744C270.715,81.701 236.939,78.394 207.341,75.133Z" style="fill:rgb(0,163,255);fill-opacity:0;"/>
                <path d="M209.015,59.93C185.203,57.306 169.667,68.388 149.719,75.978C116.424,88.647 91.583,100.492 75.652,136.03C63.695,162.701 56.852,197.251 59.121,225.705C61.009,249.376 65.456,268.111 77.473,288.201C83.479,298.242 92.536,306.8 102.275,314.842C110.098,321.3 118.38,327.416 124.829,334.353C147.192,358.406 187.26,369.071 217.557,363.888C245.56,359.097 272.601,349.715 294.251,332.796C314.392,317.056 338.249,301.87 350.609,277.879C358.139,263.263 365.508,246.65 365.187,229.905C365.019,221.128 361.532,209.659 356.416,197.914C350.121,183.458 341.498,168.302 337.27,158.566C334.822,152.93 334.683,150.856 334.207,148.985C333.323,145.514 332.304,142.161 325.541,133.123C321.367,127.546 318.841,119.377 315.533,112.041C312.216,104.689 308.322,97.951 303.402,92.982C279.119,68.453 241.95,63.558 209.015,59.93L209.015,59.93ZM205.667,90.337C231.933,93.231 262.306,94.945 281.672,114.506C285.112,117.982 287.14,123.308 289.37,128.557C292.902,136.871 296.422,145.26 301.057,151.454C304.907,156.599 304.615,156.973 305.3,159.682C305.913,162.108 306.904,165.423 309.219,170.753C313.45,180.497 322.078,195.664 328.379,210.131C331.662,217.67 334.502,224.857 334.61,230.491C334.835,242.246 328.71,253.605 323.423,263.867C313.108,283.89 292.232,295.553 275.422,308.69C257.681,322.554 235.348,329.809 212.401,333.735C191.157,337.37 162.905,330.386 147.224,313.521C139.905,305.649 130.62,298.579 121.744,291.25C114.783,285.503 108.01,279.672 103.717,272.495C94.271,256.702 91.091,241.881 89.607,223.272C87.715,199.552 93.59,170.781 103.557,148.547C115.591,121.705 135.444,114.139 160.593,104.57C167.923,101.781 174.57,98.344 181.297,95.351C188.653,92.078 196.097,89.282 205.667,90.337L205.667,90.337Z" style="fill:rgb(167,139,250);"/>
            </g>
            <g transform="matrix(1,0,0,1,-11.3865,10.4933)">
                <path d="M146.389,111.182C139.351,111.182 143.736,121.252 141.624,125.476C140.801,127.123 138.354,129.525 139.507,131.83C140.853,134.523 144.838,135.819 147.448,137.124C147.976,137.388 154.872,138.701 155.919,137.654C158.192,135.381 162.701,134.578 164.92,132.359C165.206,132.073 165.206,125.763 164.92,125.476C161.664,122.221 154.77,119.033 151.684,115.947C149.811,114.074 148.989,110.652 145.33,110.652" style="fill:rgb(167,139,250);"/>
                <path d="M143.905,110.1C143.534,110.252 143.205,110.441 142.911,110.656C141.673,111.563 141.012,113.01 140.765,114.786C140.525,116.515 140.672,118.592 140.726,120.568C140.771,122.178 140.796,123.713 140.257,124.792C139.747,125.811 138.648,127.117 138.096,128.507C137.578,129.813 137.469,131.175 138.139,132.514C138.795,133.826 139.937,134.893 141.308,135.77C143.043,136.879 145.156,137.688 146.764,138.492C147.173,138.697 151.023,139.532 153.7,139.58C154.631,139.597 155.436,139.511 155.976,139.336C156.427,139.19 156.764,138.971 157,138.735C158.018,137.717 159.556,137.063 161.069,136.38C162.936,135.537 164.774,134.667 166.001,133.441C166.129,133.312 166.402,132.973 166.505,132.357C166.604,131.765 166.664,130.342 166.664,128.918C166.664,127.494 166.604,126.071 166.505,125.479C166.402,124.863 166.129,124.524 166.001,124.395C162.745,121.139 155.851,117.951 152.765,114.865C151.861,113.962 151.223,112.676 150.357,111.625C149.189,110.206 147.713,109.123 145.33,109.123C144.681,109.123 144.126,109.528 143.905,110.1ZM146.941,112.608C146.77,112.675 146.584,112.711 146.389,112.711C145.701,112.711 145.171,112.822 144.778,113.082C144.369,113.354 144.146,113.783 143.992,114.279C143.768,115.005 143.703,115.86 143.688,116.769C143.66,118.608 143.853,120.638 143.783,122.427C143.728,123.853 143.5,125.144 142.992,126.161C142.577,126.99 141.755,128.011 141.181,129.113C140.839,129.768 140.53,130.457 140.874,131.146C141.419,132.234 142.538,132.993 143.743,133.659C145.187,134.457 146.783,135.088 148.059,135.72L148.074,135.725C148.874,135.957 151.72,136.485 153.755,136.522C154.211,136.53 154.801,136.457 154.982,136.433C156.232,135.251 158.016,134.402 159.811,133.592C161.153,132.986 162.508,132.412 163.489,131.595L163.486,126.22C160.109,123.082 153.581,120.007 150.602,117.028C149.797,116.223 149.159,115.16 148.448,114.163C148.023,113.568 147.569,112.985 146.941,112.608Z" style="fill:rgb(167,139,250);"/>
            </g>
            <g transform="matrix(1,0,0,1,-5.23804,-5.23941)">
                <path d="M345.846,237.943C342.332,236.207 332.942,221.519 328.415,222.95C319.777,225.681 317.439,236.248 311.11,241.646C309.689,242.859 305.394,247.084 303.581,246.155C299.41,244.019 299.824,234.361 297.426,230.209C290.781,218.708 280.115,218.034 270.231,210.778C266.962,208.38 262.127,201.85 257.819,203.257C252.864,204.874 253.183,211.756 256.756,214.792C258.604,216.362 261.443,216.383 263.066,218.153C263.558,218.69 266.934,222.959 266.446,223.554C262.819,227.98 256.485,232.541 251.042,234.369C240.007,238.075 238.043,220.048 234.57,213.418C233.378,211.142 228.077,208.92 226.936,212.612C225.94,215.833 227.972,219.62 228.887,222.678C231.304,230.752 233.216,241.137 242.837,243.314C248.148,244.516 255.148,237.544 258.646,244.751C259.351,246.204 256.514,250.167 255.784,251.37C251.874,257.813 245.796,262.398 241.654,268.611C236.397,276.495 240.844,282.273 238.423,289.337C236.819,294.017 231.824,298.628 228.929,302.654C222.91,311.025 218.337,320.704 211.326,328.327C208.429,331.477 201.969,334.846 197.574,332.45C193.938,330.466 192.864,324.184 191.141,320.902C187.372,313.723 182.7,306.984 182.05,298.655C181.35,289.697 184.697,278.852 181.59,270.178C174.03,249.069 144.978,266.426 135.785,246.153C132.283,238.429 133.029,231.17 133.347,222.907C133.56,217.379 133.397,212.608 136.751,207.988C144.26,197.642 164.751,190.943 177.087,190.531C181.788,190.374 187.41,198.431 191.279,201.335C192.009,201.883 194.621,204.394 195.584,204.305C197.668,204.112 200.255,199.678 202.259,198.678C206.535,196.545 213.062,204.365 216.819,203.244C218.305,202.8 219.561,201.245 220.445,200.078C220.954,199.408 222.761,198.324 221.962,198.061C217.821,196.698 214.604,192.289 216.482,187.691C217.015,186.386 224.708,188.791 225.975,188.557C233.544,187.162 237.698,182.135 238.719,174.561C238.846,173.616 235.205,171.188 234.534,170.671C230.148,167.29 223.675,163.186 218.141,166.959C214.064,169.739 214.835,174.763 215.646,178.829C216.587,183.552 207.351,188.639 203.57,188.683C197.417,188.756 199.905,181.04 198.836,177.337C198.325,175.571 194.201,173.923 192.599,173.453C191.903,173.248 191.206,173.305 190.486,173.388C184.26,174.101 191.856,178.781 191.65,181.028C191.596,181.618 188.23,184.551 187.683,184.622C182.989,185.234 181.994,176.77 178.366,176.161C175.694,175.712 172.19,176.912 169.936,178.312C166.136,180.672 164.077,184.302 160.766,187.133C154.597,192.41 143.226,194.243 140.299,184.411C139.992,183.378 140.058,182.199 140.138,181.145C140.833,172.021 152.01,178.879 154.992,171.667C156.318,168.459 153.105,164.694 154.439,161.259C154.805,160.316 157.665,159.775 158.605,159.303C161.23,157.985 163.161,156.228 164.764,153.758C166.44,151.178 170.187,139.686 174.666,140.414C180.854,141.419 188.78,150.296 194.981,144.71C199.454,140.681 204.622,135.075 207.506,129.765C208.126,128.625 210.238,124.955 209.556,123.607C208.63,121.776 203.574,121.513 203.121,118.985C202.891,117.7 204.251,115.31 204.722,114.134C206.691,109.216 204.66,97.977 197.628,103.867C189.256,110.878 201.664,123.863 195.293,132.103C193.433,134.51 186.973,138.648 183.694,136.151C181.899,134.785 183.352,130.417 180.572,129.042C178.086,127.813 172.651,130.094 170.215,130.796L170.213,130.772C169.979,126.564 168.79,119.961 170.306,115.916C171.89,111.688 175.946,108.397 178.047,104.311C179.894,100.719 180.17,96.106 183.535,93.427C189.905,88.356 200.977,86.632 208.87,86.855C213.817,86.995 219.253,89.91 223.996,91.374C231.813,93.789 239.988,95.339 248.138,96.055C259.795,97.079 271.632,95.293 283.154,93.661L283.167,93.661C292.606,98.3 309.192,119.504 312.12,128.588C320.312,154.007 323.886,164.479 331.498,177.526C343.855,198.707 352.253,215.493 349.391,235.86L345.846,237.943Z" style="fill:rgb(167,139,250);"/>
                <path d="M170.158,132.35C169.901,132.448 168.863,132.725 168.69,130.917C168.689,130.897 168.687,130.877 168.686,130.857C168.442,126.473 167.295,119.594 168.874,115.379C169.721,113.12 171.208,111.1 172.784,109.11C174.196,107.327 175.681,105.568 176.687,103.611C177.583,101.868 178.089,99.874 178.788,97.993C179.606,95.796 180.674,93.75 182.583,92.23C189.207,86.957 200.704,85.094 208.913,85.326C213.989,85.469 219.581,88.41 224.448,89.913C232.162,92.295 240.229,93.825 248.272,94.531C259.635,95.53 271.169,93.817 282.409,92.222C282.604,92.164 282.853,92.132 283.167,92.132C283.401,92.132 283.631,92.185 283.841,92.288C287.741,94.205 292.848,98.831 297.735,104.327C304.991,112.487 311.779,122.545 313.575,128.119C321.716,153.378 325.254,163.79 332.818,176.755C345.377,198.282 353.814,215.373 350.906,236.073C350.841,236.535 350.568,236.942 350.166,237.179L346.62,239.262C346.176,239.523 345.63,239.543 345.168,239.315C344.431,238.95 343.449,238.125 342.341,236.98C340.125,234.69 337.215,231.04 334.404,228.182C333.155,226.911 331.933,225.801 330.807,225.083C330.063,224.608 329.433,224.232 328.875,224.409C324.9,225.665 322.426,228.784 320.166,232.151C317.632,235.926 315.369,240.024 312.103,242.81C311.055,243.704 308.508,246.131 306.429,247.185C305.049,247.884 303.771,247.971 302.884,247.517C300.891,246.496 299.636,244.125 298.83,241.225C297.854,237.71 297.491,233.379 296.102,230.974C292.947,225.513 288.821,222.639 284.326,220.252C279.531,217.706 274.333,215.687 269.326,212.012C267.375,210.58 264.867,207.665 262.243,205.868C260.918,204.959 259.593,204.287 258.293,204.711C256.489,205.3 255.685,206.877 255.617,208.555C255.543,210.406 256.309,212.406 257.746,213.626C258.534,214.296 259.55,214.602 260.525,214.963C261.901,215.471 263.217,216.055 264.193,217.119C264.621,217.586 267.041,220.656 267.726,222.193C268.217,223.296 267.933,224.152 267.628,224.524C263.839,229.149 257.216,233.909 251.529,235.819C246.315,237.57 242.782,235.3 240.197,231.341C236.888,226.274 235.316,218.137 233.216,214.128C232.782,213.3 231.562,212.542 230.386,212.266C229.564,212.074 228.686,212.126 228.396,213.064C227.984,214.399 228.251,215.848 228.664,217.283C229.161,219.01 229.896,220.715 230.352,222.239C231.535,226.192 232.581,230.714 234.522,234.511C236.301,237.99 238.858,240.845 243.175,241.822C244.278,242.072 245.467,241.859 246.678,241.55C248.142,241.177 249.63,240.641 251.061,240.294C253.156,239.786 255.148,239.698 256.872,240.591C258.051,241.202 259.142,242.271 260.022,244.083C260.369,244.799 260.362,245.897 259.912,247.121C259.239,248.954 257.629,251.277 257.091,252.164C253.17,258.626 247.081,263.228 242.926,269.46C240.011,273.832 240.384,277.515 240.618,281.163C240.799,283.988 240.909,286.799 239.869,289.833C238.222,294.64 233.144,299.412 230.17,303.547C224.116,311.967 219.504,321.695 212.451,329.362C210.544,331.436 207.23,333.598 203.842,334.427C201.4,335.024 198.928,334.93 196.842,333.793C195.13,332.858 193.853,331.154 192.864,329.15C191.61,326.61 190.816,323.573 189.787,321.613C185.922,314.251 181.193,307.316 180.525,298.774C180.17,294.223 180.831,289.192 181.197,284.198C181.542,279.502 181.635,274.838 180.151,270.694C176.612,260.814 167.924,260.156 159.165,259.376C149.265,258.494 139.256,257.509 134.393,246.785C130.785,238.829 131.491,231.359 131.819,222.848C132.044,217 131.966,211.977 135.513,207.089C138.646,202.773 143.922,199.037 149.976,196.115C158.885,191.814 169.464,189.255 177.036,189.002C179.23,188.929 181.653,190.27 183.991,192.266C186.972,194.81 189.895,198.384 192.196,200.111C192.593,200.409 193.544,201.283 194.486,202.011C194.844,202.287 195.392,202.617 195.607,202.743C195.819,202.665 196.028,202.485 196.263,202.295C196.777,201.879 197.302,201.328 197.827,200.758C199.125,199.348 200.453,197.87 201.576,197.31C202.742,196.728 204.026,196.65 205.382,196.948C207.014,197.306 208.779,198.247 210.508,199.263C211.776,200.007 213.026,200.787 214.187,201.308C215.007,201.677 215.744,201.969 216.382,201.778C217.577,201.421 218.516,200.092 219.227,199.154C219.314,199.039 219.466,198.879 219.642,198.707C215.691,196.517 213.12,191.879 215.066,187.112C215.327,186.473 216.114,185.81 217.512,185.773C218.964,185.735 221.503,186.27 223.532,186.68C224.462,186.867 225.621,187.024 225.756,187.042C232.437,185.789 236.136,181.37 237.146,174.754C236.947,174.543 236.53,174.113 236.181,173.822C235.165,172.978 233.957,172.157 233.601,171.883C231.529,170.286 228.973,168.503 226.273,167.58C223.866,166.757 221.333,166.634 219.003,168.223C217.384,169.326 216.753,170.89 216.582,172.567C216.381,174.53 216.768,176.64 217.145,178.53C217.615,180.885 216.245,183.404 213.903,185.472C210.792,188.219 206.091,190.184 203.587,190.213C201.913,190.233 200.724,189.777 199.857,189.077C198.611,188.071 197.998,186.47 197.778,184.605C197.507,182.306 197.883,179.549 197.367,177.762C197.328,177.628 197.204,177.519 197.075,177.393C196.805,177.128 196.457,176.879 196.075,176.642C194.751,175.82 193.045,175.178 192.168,174.92C191.672,174.774 191.174,174.848 190.66,174.907C190.304,174.948 189.925,175.051 189.679,175.127C189.719,175.213 189.765,175.304 189.81,175.377C190.053,175.773 190.381,176.188 190.722,176.609C191.521,177.591 192.375,178.598 192.795,179.447C193.102,180.069 193.219,180.658 193.172,181.168C193.156,181.35 193.104,181.584 192.971,181.847C192.826,182.134 192.469,182.605 191.967,183.119C191.052,184.057 189.626,185.257 188.879,185.73C188.443,186.007 188.077,186.113 187.88,186.139C186.225,186.354 184.886,185.8 183.744,184.789C182.829,183.979 182.047,182.84 181.319,181.645C180.706,180.639 180.13,179.593 179.486,178.766C179.07,178.232 178.67,177.763 178.113,177.67C175.772,177.276 172.718,178.385 170.743,179.611C167.011,181.929 165.011,185.515 161.76,188.296C154.833,194.22 142.12,195.888 138.834,184.847C138.474,183.639 138.52,182.262 138.614,181.029C138.79,178.714 139.56,177.236 140.611,176.239C142.083,174.84 144.24,174.4 146.554,174.167C147.789,174.043 149.068,173.962 150.247,173.682C151.65,173.349 152.906,172.71 153.579,171.082C154.116,169.782 153.616,168.377 153.235,166.941C152.68,164.854 152.228,162.728 153.013,160.705C153.227,160.154 153.784,159.569 154.639,159.141C155.664,158.63 157.261,158.266 157.919,157.936C160.291,156.745 162.033,155.156 163.482,152.925C164.672,151.094 166.912,144.846 169.694,141.508C171.279,139.607 173.101,138.61 174.912,138.904C178.121,139.426 181.803,141.939 185.465,143.647C188.414,145.023 191.368,145.906 193.958,143.573C198.313,139.651 203.355,134.204 206.163,129.035C206.513,128.39 207.377,126.889 207.867,125.514C208.026,125.069 208.132,124.377 208.153,124.234C207.977,123.977 207.588,123.85 207.191,123.662C206.4,123.29 205.474,122.954 204.647,122.553C203.065,121.785 201.878,120.716 201.616,119.255C201.513,118.679 201.583,117.949 201.807,117.169C202.172,115.902 202.96,114.422 203.303,113.565C204.162,111.418 204.139,107.892 203.143,105.545C202.779,104.688 202.323,103.966 201.591,103.774C200.787,103.562 199.84,104.009 198.609,105.039C196.517,106.791 196.028,109.009 196.162,111.416C196.265,113.253 196.715,115.195 197.195,117.161C197.848,119.83 198.554,122.542 198.695,125.117C198.852,127.974 198.333,130.671 196.503,133.039C195.259,134.647 192.186,136.97 189.126,137.954C186.776,138.71 184.451,138.65 182.768,137.368C181.764,136.604 181.326,135.237 181.106,133.667C181.019,133.048 180.951,132.396 180.796,131.789C180.654,131.23 180.459,130.692 179.895,130.413C179.141,130.041 178.029,130.195 176.849,130.427C174.968,130.797 172.954,131.521 171.501,131.997C171.064,132.605 170.215,132.326 170.215,132.326L170.158,132.35ZM282.899,95.242C286.491,97.151 291.043,101.404 295.45,106.36C302.387,114.161 308.947,123.729 310.664,129.058C318.908,154.635 322.517,165.168 330.177,178.297C342.184,198.879 350.488,215.212 347.975,234.918L345.882,236.148C345.073,235.504 344.055,234.371 342.891,233.06C340.345,230.196 337.28,226.475 334.514,224.074C333.183,222.918 331.898,222.059 330.759,221.644C329.736,221.271 328.79,221.227 327.954,221.492C323.291,222.966 320.278,226.496 317.627,230.445C315.251,233.986 313.181,237.87 310.118,240.483C309.296,241.184 307.482,242.939 305.779,244.031C305.397,244.276 305.025,244.486 304.675,244.625C304.522,244.686 304.284,244.736 304.201,244.752C302.909,244.038 302.31,242.325 301.777,240.406C300.73,236.637 300.239,232.022 298.75,229.444C295.26,223.404 290.731,220.19 285.76,217.55C281.089,215.07 276.013,213.125 271.135,209.545C269.164,208.099 266.623,205.161 263.972,203.344C261.78,201.842 259.493,201.101 257.345,201.803C254.195,202.831 252.68,205.504 252.562,208.431C252.45,211.184 253.63,214.143 255.767,215.958C256.826,216.858 258.154,217.347 259.465,217.832C260.377,218.169 261.292,218.481 261.939,219.187C262.23,219.504 263.592,221.214 264.448,222.575C264.564,222.759 264.684,222.975 264.78,223.155C261.258,227.198 255.52,231.252 250.555,232.919C246.94,234.133 244.55,232.413 242.757,229.668C239.501,224.68 237.992,216.655 235.925,212.708C235.011,210.963 232.235,209.195 229.822,209.117C227.888,209.054 226.177,209.89 225.475,212.16C225,213.696 225.071,215.341 225.435,216.995C225.902,219.112 226.863,221.249 227.422,223.116C228.656,227.238 229.775,231.945 231.799,235.904C233.985,240.179 237.195,243.605 242.5,244.806C243.766,245.092 245.112,245.012 246.489,244.732C248.241,244.376 250.053,243.686 251.782,243.267C253.109,242.945 254.374,242.742 255.465,243.308C256.14,243.657 256.714,244.306 257.221,245.32C257.183,245.476 256.996,246.227 256.768,246.714C256.059,248.229 254.899,249.88 254.477,250.577C250.578,257.001 244.512,261.567 240.382,267.762C237.526,272.046 237.282,275.752 237.447,279.352C237.591,282.477 238.118,285.509 236.976,288.841C235.416,293.395 230.504,297.843 227.687,301.761C221.704,310.082 217.171,319.713 210.201,327.291C208.631,328.997 205.903,330.773 203.116,331.455C201.441,331.865 199.737,331.887 198.306,331.107C196.765,330.266 195.845,328.458 195.049,326.569C194.093,324.298 193.373,321.863 192.495,320.191C188.822,313.195 184.208,306.653 183.574,298.536C183.23,294.129 183.892,289.258 184.247,284.422C184.625,279.288 184.652,274.193 183.03,269.663C179.008,258.433 169.392,257.216 159.436,256.329C150.621,255.543 141.508,255.071 137.178,245.522C133.78,238.029 134.566,230.981 134.875,222.966C135.076,217.756 134.828,213.24 137.988,208.886C140.863,204.925 145.748,201.552 151.305,198.87C159.812,194.763 169.908,192.301 177.138,192.059C178.705,192.007 180.336,193.168 182.006,194.593C185.037,197.18 188.02,200.802 190.361,202.558C190.885,202.952 192.361,204.328 193.535,205.09C194.397,205.649 195.217,205.875 195.725,205.828C196.83,205.726 198.122,204.85 199.348,203.6C200.611,202.313 201.848,200.593 202.942,200.047C203.662,199.688 204.477,199.823 205.335,200.103C206.511,200.488 207.74,201.184 208.959,201.9C210.626,202.879 212.275,203.895 213.749,204.432C215.032,204.899 216.223,205.018 217.257,204.709C219.034,204.179 220.605,202.398 221.663,201.003C221.918,200.667 222.552,200.23 222.922,199.856C223.388,199.385 223.614,198.892 223.669,198.55C223.733,198.159 223.667,197.803 223.5,197.484C223.33,197.155 223.033,196.803 222.44,196.608C219.267,195.564 216.669,192.361 217.69,188.865C218.123,188.879 218.86,188.917 219.45,189.01C221.164,189.282 223.183,189.759 224.5,189.974C225.304,190.104 225.928,190.121 226.253,190.061C234.539,188.534 239.117,183.057 240.234,174.765C240.298,174.29 240.154,173.599 239.595,172.893C238.641,171.688 236.044,169.904 235.468,169.46C233.153,167.675 230.279,165.716 227.262,164.685C223.953,163.554 220.483,163.511 217.28,165.695C214.822,167.371 213.799,169.709 213.539,172.256C213.308,174.517 213.712,176.951 214.146,179.128C214.267,179.734 214.089,180.342 213.768,180.938C213.345,181.725 212.673,182.478 211.879,183.179C209.35,185.411 205.586,187.13 203.552,187.154C202.765,187.163 202.185,187.025 201.778,186.697C201.113,186.16 200.933,185.242 200.815,184.247C200.525,181.781 200.858,178.829 200.305,176.913C200.077,176.125 199.434,175.299 198.485,174.586C196.849,173.355 194.263,172.347 193.03,171.985C192.134,171.722 191.239,171.762 190.312,171.868C187.927,172.141 186.98,173.103 186.66,173.964C186.398,174.667 186.458,175.504 186.886,176.399C187.416,177.505 188.642,178.822 189.527,179.999C189.681,180.203 189.849,180.485 189.967,180.696L187.244,183.122C186.494,183.131 185.924,182.701 185.411,182.144C184.866,181.551 184.392,180.811 183.93,180.053C183.102,178.694 182.311,177.285 181.403,176.298C180.587,175.412 179.666,174.828 178.62,174.653C175.616,174.148 171.663,175.439 169.129,177.013C165.26,179.415 163.143,183.088 159.772,185.971C154.359,190.601 144.333,192.603 141.765,183.974C141.51,183.116 141.597,182.137 141.663,181.261C141.765,179.925 142.11,179.033 142.717,178.457C143.729,177.495 145.27,177.371 146.861,177.211C148.229,177.073 149.645,176.969 150.953,176.658C153.281,176.106 155.289,174.951 156.405,172.251C157.194,170.343 156.75,168.263 156.19,166.155C155.821,164.766 155.361,163.361 155.795,162.009C155.978,161.916 156.474,161.668 156.819,161.546C157.765,161.209 158.784,160.924 159.291,160.67C162.17,159.224 164.288,157.299 166.047,154.592C167.052,153.043 168.803,148.287 171.011,144.887C171.649,143.904 172.318,143.042 173.034,142.468C173.485,142.106 173.932,141.844 174.421,141.924C177.4,142.408 180.774,144.835 184.173,146.42C188.285,148.338 192.392,149.101 196.005,145.847C200.596,141.711 205.889,135.946 208.85,130.495C209.316,129.638 210.552,127.44 211.009,125.707C211.307,124.578 211.254,123.577 210.92,122.916C210.621,122.324 210.09,121.798 209.369,121.359C208.645,120.918 207.693,120.547 206.759,120.15C206.156,119.894 205.56,119.63 205.097,119.287C204.878,119.125 204.671,118.966 204.626,118.716C204.571,118.408 204.735,118.008 204.889,117.578C205.27,116.518 205.864,115.396 206.142,114.703C207.251,111.931 207.244,107.379 205.958,104.35C205.18,102.517 203.935,101.227 202.369,100.815C200.874,100.422 198.935,100.777 196.646,102.694C191.976,106.605 192.82,112.139 194.225,117.888C194.832,120.371 195.51,122.889 195.642,125.285C195.758,127.4 195.439,129.415 194.084,131.167C193.094,132.447 190.624,134.259 188.19,135.042C186.875,135.465 185.561,135.651 184.62,134.934C184.432,134.791 184.388,134.539 184.321,134.278C184.174,133.703 184.112,133.041 184.016,132.38C183.734,130.444 183.125,128.598 181.25,127.671C180.014,127.06 178.195,127.045 176.259,127.425C174.667,127.738 172.979,128.29 171.591,128.75C171.394,126.581 171.108,124.063 171.08,121.663C171.058,119.748 171.19,117.914 171.738,116.452C172.476,114.483 173.808,112.744 175.181,111.01C176.718,109.069 178.312,107.14 179.407,105.01C180.357,103.162 180.913,101.054 181.655,99.06C182.278,97.384 183.031,95.783 184.487,94.624C190.602,89.756 201.249,88.17 208.826,88.384C213.645,88.52 218.925,91.409 223.545,92.836C231.465,95.282 239.747,96.854 248.004,97.579C259.618,98.599 271.41,96.871 282.899,95.242Z" style="fill:rgb(167,139,250);"/>
            </g>
            <g transform="matrix(1,0,0,1,-5.23804,-7.4607e-14)">
                <path d="M255.558,164.948C254.102,167.517 250.184,172.238 249.776,175.119C249.482,177.191 252.381,180.455 253.057,182.295C253.774,184.248 252.756,185.806 252.641,187.762C252.404,191.796 258.562,190.341 259.903,188.957C265.776,182.891 262.703,179.531 261.308,172.628C260.469,168.478 262.73,163.387 255.558,164.948Z" style="fill:rgb(0,163,255);fill-opacity:0;"/>
                <path d="M245.48,184.36C245.298,185.21 245.059,186.465 245.009,187.313C244.812,190.659 245.965,193.002 247.518,194.712C248.982,196.323 250.996,197.444 253.409,197.86C257.72,198.605 263.522,196.212 265.395,194.277C271.464,188.01 271.67,183.314 270.598,178.077C270.184,176.055 269.359,173.866 268.802,171.112C268.367,168.962 268.671,166.576 268.252,164.893C267.588,162.23 266.186,160.187 264.023,158.756C262.127,157.501 259.081,156.354 253.932,157.475C251.808,157.938 249.981,159.283 248.908,161.174C247.873,162.999 245.621,165.9 244.217,168.476C243.119,170.49 242.433,172.445 242.206,174.045C241.946,175.879 242.237,178.085 243.241,180.343C243.746,181.479 244.837,183.313 245.48,184.36ZM254.642,183.401C254.557,183.485 254.48,183.565 254.411,183.636L254.642,183.401Z" style="fill:rgb(167,139,250);"/>
            </g>
        </g>
    </g>
    <g id="Calque2" transform="matrix(1.81447,0,0,1.814,16.3881,-21.629)">
        <g>
            <g transform="matrix(0.848773,0,0,0.848773,20.9167,37.7993)">
                <path d="M47.425,53.613C47.321,53.726 47.22,53.84 47.12,53.957C39.299,63.095 25.464,82.299 17.219,95.433C1.441,120.568 -8.852,183.421 -5.207,214.738C-3.422,230.074 -5.198,271.771 3.23,308.575C9.659,336.65 22.217,361.694 43.897,374.176C105.817,409.828 128.699,415.64 171.515,406.009C210.999,397.128 257.319,403.706 297.567,401.015C328.257,398.962 355.633,391.672 375.788,372.177C389.291,359.116 396.349,336.985 400.447,311.126C405.629,278.436 406.536,239.278 418.711,210.945C428.483,188.201 428.106,161.344 421.649,134.902C412.535,97.576 391.461,61.16 374.088,40.134C352.891,14.481 308.676,-1.873 262.535,-6.143C216.899,-10.367 169.883,-2.876 142.878,15.692C130.497,24.206 115.293,27.122 100.392,30.627C81.807,35 63.618,40.098 49.092,51.997C48.594,52.405 48.126,52.848 47.691,53.323L47.425,53.613ZM67.081,72.26C78.293,63.481 92.432,60.301 106.587,56.971C124.784,52.69 143.084,48.39 158.204,37.994C181.134,22.227 221.292,17.217 260.042,20.803C298.29,24.343 335.663,36.11 353.234,57.375C368.624,76 387.293,108.258 395.367,141.322C400.369,161.808 401.425,182.639 393.854,200.259C380.881,230.451 379.248,272.054 373.726,306.889C370.688,326.053 366.988,343.043 356.981,352.722C336.96,372.088 307.389,374.435 275.644,374.699C239.195,375.001 199.917,371.883 165.579,379.607C129.129,387.805 110.108,381.073 57.393,350.722C41.768,341.726 34.236,322.767 29.602,302.532C21.437,266.88 23.396,226.465 21.666,211.608C18.56,184.922 26.687,131.242 40.132,109.824C47.529,98.04 59.778,80.934 67.081,72.26Z" style="fill:rgb(167,139,250);"/>
            </g>
            <g transform="matrix(1.43222,0,0,1.43222,184.658,-135.251)">
                <circle cx="72.24" cy="132.091" r="22.917" style="fill:rgb(167,139,250);stroke:rgb(167,139,250);stroke-width:0.38px;"/>
            </g>
            <g transform="matrix(1.43222,0,0,1.43222,-75.5614,66.2926)">
                <circle cx="72.24" cy="132.091" r="22.917" style="fill:rgb(167,139,250);stroke:rgb(167,139,250);stroke-width:0.38px;"/>
            </g>
            <g transform="matrix(1.43222,0,0,1.43222,183.096,174.274)">
                <circle cx="72.24" cy="132.091" r="22.917" style="fill:rgb(167,139,250);stroke:rgb(167,139,250);stroke-width:0.38px;"/>
            </g>
        </g>
    </g>
</svg>
