<?xml version="1.0" encoding="UTF-8" standalone="no"?>
<!DOCTYPE svg PUBLIC "-//W3C//DTD SVG 1.1//EN" "http://www.w3.org/Graphics/SVG/1.1/DTD/svg11.dtd">
<svg width="100%" height="100%" viewBox="0 0 714 714" version="1.1" xmlns="http://www.w3.org/2000/svg" xmlns:xlink="http://www.w3.org/1999/xlink" xml:space="preserve" xmlns:serif="http://www.serif.com/" style="fill-rule:evenodd;clip-rule:evenodd;stroke-linecap:round;stroke-linejoin:round;stroke-miterlimit:1.5;">
    <g id="Calque1" transform="matrix(1.55858,0,0,1.55817,58.7003,26.0412)">
        <g>
            <g transform="matrix(1,0,0,1,-5.19189,-7.4607e-14)">
                <path d="M207.341,75.133C186.278,72.813 172.801,83.56 155.156,90.274C125.936,101.392 103.586,111.101 89.604,142.289C78.642,166.741 72.284,198.401 74.364,224.488C76.05,245.628 79.864,262.407 90.595,280.348C100.893,297.565 122.258,309.128 136.027,323.937C155.048,344.396 189.209,353.22 214.979,348.811C240.454,344.453 265.141,336.134 284.837,320.743C303.311,306.305 325.679,292.879 337.016,270.873C343.423,258.435 350.172,244.447 349.899,230.198C349.554,212.186 330.293,180.893 323.244,164.66C317.157,150.641 322.364,154.402 313.299,142.289C305.351,131.668 301.884,113.185 292.537,103.744C270.715,81.701 236.939,78.394 207.341,75.133Z" style="fill:rgb(167,139,250);fill-opacity:0;"/>
                <path d="M208.805,61.843C185.339,59.258 170.061,70.297 150.404,77.777C117.621,90.251 93.094,101.828 77.408,136.818C65.576,163.21 58.794,197.396 61.039,225.552C62.902,248.904 67.27,267.393 79.124,287.213C85.023,297.074 93.936,305.46 103.5,313.357C111.389,319.87 119.734,326.046 126.239,333.042C148.181,356.642 187.505,367.076 217.233,361.99C244.917,357.254 271.662,348.005 293.066,331.279C312.997,315.703 336.667,300.738 348.898,276.998C356.287,262.655 363.578,246.372 363.263,229.942C363.099,221.363 359.652,210.163 354.652,198.683C348.356,184.226 339.733,169.07 335.505,159.333C332.982,153.524 332.833,151.388 332.342,149.46C331.495,146.133 330.483,142.939 324,134.277C319.752,128.599 317.147,120.301 313.778,112.833C310.562,105.703 306.806,99.155 302.035,94.336C278.062,70.121 241.319,65.426 208.805,61.843ZM205.878,88.423C232.562,91.363 263.364,93.278 283.039,113.152C286.635,116.784 288.81,122.319 291.141,127.804C294.61,135.969 298.046,144.218 302.598,150.301C306.762,155.865 306.425,156.28 307.166,159.21C307.762,161.572 308.731,164.797 310.984,169.986C315.215,179.729 323.843,194.896 330.143,209.362C333.541,217.166 336.423,224.623 336.534,230.454C336.766,242.523 330.561,254.213 325.134,264.748C314.69,285.021 293.626,296.906 276.607,310.206C258.62,324.263 235.991,331.652 212.726,335.632C190.912,339.365 161.916,332.15 145.815,314.832C138.551,307.019 129.329,300.009 120.519,292.734C113.383,286.843 106.466,280.84 102.066,273.483C92.457,257.42 89.198,242.353 87.689,223.425C85.773,199.407 91.708,170.273 101.801,147.759C114.08,120.37 134.248,112.534 159.908,102.771C167.204,99.995 173.82,96.571 180.514,93.592C188.167,90.187 195.922,87.326 205.878,88.423L205.878,88.423Z" style="fill:rgb(167,139,250);"/>
            </g>
            <g transform="matrix(1,0,0,1,-8.41466,4.23549)">
                <path d="M146.389,111.182C139.351,111.182 143.736,121.252 141.624,125.476C140.801,127.123 138.354,129.525 139.507,131.83C140.853,134.523 144.838,135.819 147.448,137.124C147.976,137.388 154.872,138.701 155.919,137.654C158.192,135.381 162.701,134.578 164.92,132.359C165.206,132.073 165.206,125.763 164.92,125.476C161.664,122.221 154.77,119.033 151.684,115.947C149.811,114.074 148.989,110.652 145.33,110.652" style="fill:rgb(167,139,250);"/>
                <path d="M144.057,110.245C143.67,110.398 143.328,110.589 143.025,110.811C141.826,111.69 141.195,113.094 140.956,114.813C140.717,116.532 140.864,118.597 140.919,120.563C140.964,122.208 140.98,123.775 140.429,124.878C139.921,125.893 138.824,127.194 138.275,128.578C137.777,129.833 137.668,131.141 138.311,132.428C138.952,133.71 140.072,134.75 141.412,135.608C143.141,136.713 145.247,137.518 146.85,138.32C147.254,138.522 151.059,139.341 153.703,139.388C154.609,139.404 155.392,139.323 155.916,139.153C156.333,139.018 156.646,138.817 156.864,138.599C157.897,137.566 159.455,136.897 160.989,136.205C162.834,135.372 164.653,134.516 165.865,133.305C165.981,133.189 166.222,132.881 166.315,132.325C166.413,131.739 166.471,130.329 166.471,128.918C166.471,127.507 166.413,126.097 166.315,125.51C166.222,124.955 165.981,124.647 165.865,124.531C162.609,121.275 155.715,118.087 152.629,115.001C151.721,114.094 151.078,112.803 150.209,111.747C149.074,110.369 147.644,109.315 145.33,109.315C144.735,109.315 144.229,109.706 144.057,110.245ZM146.954,112.393C146.783,112.474 146.591,112.519 146.389,112.519C145.654,112.519 145.091,112.644 144.671,112.922C144.225,113.218 143.976,113.681 143.809,114.222C143.579,114.963 143.51,115.837 143.496,116.766C143.467,118.603 143.66,120.632 143.591,122.42C143.537,123.815 143.317,125.08 142.82,126.075C142.406,126.903 141.584,127.923 141.01,129.024C140.64,129.734 140.329,130.485 140.702,131.232C141.263,132.353 142.409,133.142 143.65,133.827C145.124,134.642 146.755,135.283 148.046,135.928C148.381,136.096 151.555,136.675 153.751,136.714C154.256,136.723 154.916,136.63 155.079,136.606C156.316,135.42 158.098,134.576 159.89,133.767C161.28,133.14 162.679,132.543 163.678,131.687L163.676,126.133C160.314,122.978 153.733,119.887 150.739,116.892C149.94,116.094 149.31,115.039 148.604,114.051C148.144,113.407 147.649,112.783 146.954,112.393Z" style="fill:rgb(167,139,250);"/>
            </g>
            <g transform="matrix(1,0,0,1,-5.23804,-5.23941)">
                <path d="M345.846,237.943C342.332,236.207 332.942,221.519 328.415,222.95C319.777,225.681 317.439,236.248 311.11,241.646C309.689,242.859 305.394,247.084 303.581,246.155C299.41,244.019 299.824,234.361 297.426,230.209C290.781,218.708 280.115,218.034 270.231,210.778C266.962,208.38 262.127,201.85 257.819,203.257C252.864,204.874 253.183,211.756 256.756,214.792C258.604,216.362 261.443,216.383 263.066,218.153C263.558,218.69 266.934,222.959 266.446,223.554C262.819,227.98 256.485,232.541 251.042,234.369C240.007,238.075 238.043,220.048 234.57,213.418C233.378,211.142 228.077,208.92 226.936,212.612C225.94,215.833 227.972,219.62 228.887,222.678C231.304,230.752 233.216,241.137 242.837,243.314C248.148,244.516 255.148,237.544 258.646,244.751C259.351,246.204 256.514,250.167 255.784,251.37C251.874,257.813 245.796,262.398 241.654,268.611C236.397,276.495 240.844,282.273 238.423,289.337C236.819,294.017 231.824,298.628 228.929,302.654C222.91,311.025 218.337,320.704 211.326,328.327C208.429,331.477 201.969,334.846 197.574,332.45C193.938,330.466 192.864,324.184 191.141,320.902C187.372,313.723 182.7,306.984 182.05,298.655C181.35,289.697 184.697,278.852 181.59,270.178C174.03,249.069 144.978,266.426 135.785,246.153C132.283,238.429 133.029,231.17 133.347,222.907C133.56,217.379 133.397,212.608 136.751,207.988C144.26,197.642 164.751,190.943 177.087,190.531C181.788,190.374 187.41,198.431 191.279,201.335C192.009,201.883 194.621,204.394 195.584,204.305C197.668,204.112 200.255,199.678 202.259,198.678C206.535,196.545 213.062,204.365 216.819,203.244C218.305,202.8 219.561,201.245 220.445,200.078C220.954,199.408 222.761,198.324 221.962,198.061C217.821,196.698 214.604,192.289 216.482,187.691C217.015,186.386 224.708,188.791 225.975,188.557C233.544,187.162 237.698,182.135 238.719,174.561C238.846,173.616 235.205,171.188 234.534,170.671C230.148,167.29 223.675,163.186 218.141,166.959C214.064,169.739 214.835,174.763 215.646,178.829C216.587,183.552 207.351,188.639 203.57,188.683C197.417,188.756 199.905,181.04 198.836,177.337C198.325,175.571 194.201,173.923 192.599,173.453C191.903,173.248 191.206,173.305 190.486,173.388C184.26,174.101 191.856,178.781 191.65,181.028C191.596,181.618 188.23,184.551 187.683,184.622C182.989,185.234 181.994,176.77 178.366,176.161C175.694,175.712 172.19,176.912 169.936,178.312C166.136,180.672 164.077,184.302 160.766,187.133C154.597,192.41 143.226,194.243 140.299,184.411C139.992,183.378 140.058,182.199 140.138,181.145C140.833,172.021 152.01,178.879 154.992,171.667C156.318,168.459 153.105,164.694 154.439,161.259C154.805,160.316 157.665,159.775 158.605,159.303C161.23,157.985 163.161,156.228 164.764,153.758C166.44,151.178 170.187,139.686 174.666,140.414C180.854,141.419 188.78,150.296 194.981,144.71C199.454,140.681 204.622,135.075 207.506,129.765C208.126,128.625 210.238,124.955 209.556,123.607C208.63,121.776 203.574,121.513 203.121,118.985C202.891,117.7 204.251,115.31 204.722,114.134C206.691,109.216 204.66,97.977 197.628,103.867C189.256,110.878 201.664,123.863 195.293,132.103C193.433,134.51 186.973,138.648 183.694,136.151C181.899,134.785 183.352,130.417 180.572,129.042C178.086,127.813 172.651,130.094 170.215,130.796L170.213,130.772C169.979,126.564 168.79,119.961 170.306,115.916C171.89,111.688 175.946,108.397 178.047,104.311C179.894,100.719 180.17,96.106 183.535,93.427C189.905,88.356 200.977,86.632 208.87,86.855C213.817,86.995 219.253,89.91 223.996,91.374C231.813,93.789 239.988,95.339 248.138,96.055C259.795,97.079 271.632,95.293 283.154,93.661L283.167,93.661C292.606,98.3 309.192,119.504 312.12,128.588C320.312,154.007 323.886,164.479 331.498,177.526C343.855,198.707 352.253,215.493 349.391,235.86L345.846,237.943Z" style="fill:rgb(167,139,250);"/>
                <path d="M170.165,132.154C169.94,132.24 169.033,132.482 168.882,130.899C168.88,130.881 168.879,130.864 168.878,130.846C168.635,126.484 167.483,119.64 169.054,115.447C169.894,113.206 171.372,111.203 172.935,109.23C174.355,107.437 175.847,105.667 176.858,103.699C177.758,101.95 178.267,99.948 178.969,98.06C179.774,95.895 180.822,93.878 182.703,92.381C189.295,87.133 200.738,85.288 208.907,85.518C213.967,85.661 219.54,88.599 224.391,90.097C232.118,92.483 240.199,94.016 248.255,94.723C259.657,95.725 271.231,94.002 282.506,92.403C282.676,92.352 282.894,92.324 283.167,92.324C283.371,92.324 283.573,92.371 283.756,92.461C287.641,94.37 292.724,98.981 297.591,104.455C304.828,112.592 311.6,122.62 313.392,128.178C321.54,153.457 325.082,163.876 332.652,176.852C345.186,198.336 353.618,215.388 350.715,236.046C350.658,236.45 350.42,236.806 350.069,237.013L346.523,239.096C346.135,239.324 345.657,239.342 345.254,239.142C344.53,238.784 343.567,237.971 342.479,236.846C340.263,234.556 337.352,230.906 334.541,228.047C333.049,226.529 331.6,225.236 330.307,224.571C329.747,224.284 329.254,224.087 328.817,224.225C324.799,225.495 322.291,228.64 320.007,232.043C317.483,235.804 315.231,239.889 311.978,242.664C310.937,243.552 308.408,245.966 306.342,247.013C305.029,247.678 303.815,247.777 302.971,247.345C301.02,246.345 299.805,244.014 299.016,241.173C298.035,237.642 297.664,233.293 296.268,230.878C293.092,225.38 288.941,222.485 284.416,220.082C279.63,217.54 274.439,215.525 269.44,211.856C267.488,210.424 264.977,207.508 262.352,205.709C260.972,204.763 259.586,204.086 258.234,204.528C256.344,205.145 255.496,206.791 255.425,208.547C255.348,210.455 256.141,212.515 257.622,213.773C258.427,214.457 259.462,214.775 260.459,215.143C261.805,215.641 263.096,216.207 264.051,217.249C264.474,217.711 266.872,220.75 267.55,222.271C267.999,223.279 267.757,224.062 267.479,224.402C263.711,229.002 257.124,233.737 251.467,235.636C246.355,237.354 242.893,235.118 240.358,231.236C237.053,226.173 235.484,218.044 233.386,214.038C232.932,213.172 231.661,212.367 230.429,212.079C229.508,211.863 228.538,211.955 228.213,213.007C227.789,214.377 228.056,215.864 228.479,217.337C228.976,219.063 229.711,220.77 230.168,222.294C231.354,226.258 232.404,230.792 234.35,234.598C236.155,238.128 238.753,241.019 243.132,242.01C244.264,242.266 245.483,242.054 246.726,241.737C248.188,241.363 249.676,240.828 251.106,240.481C253.153,239.984 255.099,239.89 256.783,240.762C257.933,241.358 258.992,242.402 259.849,244.168C260.179,244.848 260.159,245.891 259.731,247.055C259.063,248.876 257.461,251.182 256.926,252.064C253.007,258.523 246.919,263.124 242.766,269.353C239.821,273.77 240.19,277.49 240.426,281.175C240.605,283.976 240.718,286.763 239.687,289.771C238.045,294.561 232.978,299.313 230.014,303.435C223.964,311.848 219.357,321.57 212.31,329.232C210.424,331.283 207.147,333.42 203.797,334.24C201.403,334.825 198.979,334.738 196.935,333.624C195.254,332.707 194.007,331.031 193.036,329.065C191.781,326.523 190.987,323.485 189.957,321.523C186.104,314.185 181.382,307.274 180.717,298.759C180.362,294.217 181.023,289.197 181.389,284.212C181.736,279.489 181.825,274.797 180.332,270.629C176.763,260.664 168.016,259.971 159.182,259.184C149.35,258.308 139.398,257.356 134.568,246.706C130.974,238.779 131.685,231.335 132.012,222.855C132.235,217.048 132.146,212.056 135.669,207.202C138.785,202.909 144.037,199.195 150.059,196.288C158.943,192 169.492,189.447 177.042,189.194C179.197,189.122 181.57,190.453 183.867,192.412C186.851,194.959 189.777,198.536 192.081,200.265C192.517,200.593 193.628,201.625 194.654,202.378C194.963,202.606 195.426,202.863 195.586,202.95C195.845,202.879 196.101,202.674 196.384,202.445C196.905,202.024 197.436,201.466 197.968,200.888C199.249,199.498 200.555,198.035 201.662,197.482C202.789,196.92 204.031,196.848 205.341,197.136C206.955,197.49 208.7,198.424 210.411,199.429C211.685,200.177 212.941,200.96 214.108,201.484C214.977,201.874 215.761,202.164 216.437,201.963C217.669,201.595 218.647,200.237 219.38,199.27C219.518,199.089 219.727,198.879 219.964,198.662C215.964,196.57 213.301,191.945 215.245,187.185C215.486,186.594 216.224,186 217.517,185.966C218.958,185.928 221.48,186.462 223.494,186.868C224.461,187.063 225.671,187.222 225.771,187.235C232.582,185.966 236.343,181.458 237.349,174.701C237.158,174.493 236.693,173.998 236.304,173.674C235.286,172.828 234.075,172.005 233.719,171.73C231.631,170.121 229.056,168.327 226.336,167.398C223.871,166.555 221.279,166.437 218.894,168.064C217.222,169.203 216.567,170.816 216.39,172.547C216.188,174.529 216.576,176.66 216.956,178.568C217.414,180.864 216.06,183.311 213.775,185.328C210.701,188.042 206.059,189.991 203.585,190.02C201.966,190.039 200.816,189.604 199.978,188.927C198.768,187.95 198.182,186.393 197.969,184.583C197.697,182.273 198.07,179.503 197.551,177.708C197.505,177.547 197.365,177.408 197.209,177.255C196.93,176.982 196.571,176.723 196.176,176.479C194.836,175.647 193.11,174.996 192.222,174.736C191.701,174.582 191.178,174.654 190.638,174.716C190.14,174.773 189.658,174.931 189.426,175.016C189.479,175.15 189.563,175.342 189.646,175.477C189.893,175.88 190.226,176.303 190.573,176.73C191.362,177.701 192.207,178.694 192.622,179.532C192.912,180.118 193.025,180.67 192.981,181.15C192.963,181.345 192.893,181.626 192.695,181.945C192.535,182.204 192.228,182.576 191.829,182.985C190.925,183.912 189.515,185.1 188.777,185.568C188.373,185.823 188.037,185.924 187.855,185.948C186.261,186.156 184.972,185.619 183.871,184.645C182.97,183.847 182.201,182.723 181.483,181.545C180.866,180.532 180.286,179.48 179.638,178.648C179.189,178.071 178.746,177.581 178.145,177.48C175.762,177.079 172.651,178.199 170.641,179.448C166.901,181.771 164.893,185.363 161.635,188.15C154.803,193.992 142.259,195.681 139.018,184.792C138.665,183.606 138.713,182.254 138.806,181.043C138.977,178.791 139.721,177.35 140.743,176.378C142.187,175.007 144.305,174.587 146.574,174.359C147.817,174.233 149.104,174.151 150.292,173.869C151.753,173.522 153.056,172.851 153.757,171.156C154.31,169.818 153.813,168.37 153.421,166.891C152.877,164.844 152.422,162.76 153.193,160.775C153.394,160.258 153.922,159.715 154.725,159.314C155.75,158.802 157.348,158.438 158.005,158.108C160.409,156.901 162.175,155.291 163.644,153.03C164.831,151.202 167.065,144.963 169.842,141.632C171.375,139.792 173.129,138.81 174.881,139.094C178.076,139.613 181.739,142.122 185.384,143.822C188.406,145.231 191.433,146.107 194.087,143.716C198.456,139.781 203.514,134.313 206.332,129.127C206.685,128.477 207.554,126.964 208.049,125.579C208.187,125.192 208.296,124.819 208.338,124.487C208.351,124.386 208.347,124.226 208.345,124.18C208.167,123.868 207.732,123.705 207.273,123.488C206.483,123.116 205.557,122.781 204.731,122.38C203.211,121.642 202.057,120.625 201.806,119.221C201.681,118.526 201.843,117.582 202.192,116.609C202.585,115.514 203.195,114.353 203.481,113.637C204.357,111.451 204.334,107.86 203.32,105.47C202.931,104.552 202.424,103.794 201.64,103.587C200.793,103.365 199.783,103.806 198.486,104.892C196.341,106.688 195.833,108.959 195.97,111.426C196.073,113.275 196.525,115.229 197.009,117.207C197.658,119.864 198.362,122.564 198.503,125.128C198.658,127.937 198.151,130.592 196.351,132.921C195.123,134.509 192.087,136.799 189.067,137.771C186.782,138.506 184.521,138.461 182.884,137.215C181.917,136.479 181.509,135.154 181.297,133.64C181.209,133.014 181.139,132.355 180.983,131.741C180.826,131.128 180.599,130.547 179.98,130.241C179.196,129.853 178.039,129.997 176.812,130.238C174.877,130.618 172.801,131.373 171.336,131.848C170.953,132.376 170.215,132.133 170.215,132.133L170.165,132.154ZM282.934,95.043C286.549,96.947 291.147,101.231 295.594,106.232C302.551,114.056 309.125,123.655 310.847,128.998C319.085,154.556 322.69,165.081 330.343,178.2C342.394,198.857 350.711,215.247 348.154,235.036L345.869,236.379C345.033,235.74 343.968,234.563 342.747,233.188C340.207,230.33 337.148,226.615 334.388,224.219C333.078,223.082 331.814,222.233 330.693,221.825C329.716,221.468 328.811,221.423 328.012,221.675C323.393,223.136 320.413,226.64 317.787,230.553C315.401,234.108 313.319,238.006 310.243,240.629C309.417,241.334 307.593,243.096 305.883,244.193C305.407,244.499 304.946,244.752 304.527,244.883C304.404,244.921 304.206,244.943 304.158,244.948C302.794,244.227 302.147,242.457 301.591,240.457C300.549,236.705 300.066,232.107 298.583,229.54C295.115,223.537 290.611,220.344 285.67,217.72C280.991,215.236 275.907,213.287 271.021,209.701C269.052,208.255 266.512,205.318 263.863,203.503C261.726,202.039 259.499,201.302 257.404,201.986C254.339,202.987 252.869,205.59 252.754,208.439C252.645,211.135 253.798,214.034 255.891,215.811C256.934,216.697 258.241,217.174 259.532,217.651C260.473,217.999 261.413,218.328 262.08,219.057C262.374,219.377 263.748,221.101 264.611,222.472C264.755,222.701 264.902,222.977 265.009,223.185C261.473,227.284 255.649,231.411 250.616,233.101C246.901,234.349 244.438,232.595 242.596,229.774C239.336,224.78 237.824,216.748 235.754,212.797C234.865,211.1 232.162,209.385 229.816,209.309C227.967,209.249 226.33,210.047 225.659,212.217C225.193,213.722 225.267,215.333 225.623,216.954C226.088,219.066 227.049,221.198 227.606,223.061C228.837,227.172 229.951,231.867 231.97,235.816C234.131,240.042 237.3,243.432 242.542,244.618C243.782,244.899 245.102,244.817 246.451,244.543C248.201,244.188 250.01,243.499 251.737,243.08C253.111,242.746 254.423,242.551 255.554,243.137C256.27,243.508 256.882,244.196 257.418,245.284C257.415,245.336 257.405,245.496 257.383,245.599C257.304,245.963 257.141,246.372 256.943,246.796C256.23,248.318 255.065,249.977 254.641,250.677C250.742,257.103 244.674,261.672 240.542,267.869C237.714,272.11 237.476,275.779 237.64,279.343C237.784,282.492 238.309,285.546 237.158,288.904C235.592,293.473 230.67,297.942 227.843,301.873C221.855,310.201 217.318,319.838 210.342,327.422C208.752,329.151 205.987,330.951 203.162,331.642C201.438,332.064 199.686,332.078 198.214,331.276C196.638,330.416 195.685,328.576 194.872,326.644C193.918,324.378 193.2,321.949 192.324,320.28C188.639,313.261 184.019,306.694 183.382,298.551C183.037,294.135 183.7,289.254 184.056,284.408C184.431,279.301 184.463,274.234 182.849,269.727C178.857,258.583 169.299,257.401 159.419,256.52C150.535,255.729 141.366,255.224 137.003,245.601C133.592,238.079 134.373,231.005 134.683,222.958C134.885,217.709 134.648,213.161 137.832,208.773C140.724,204.79 145.634,201.394 151.221,198.696C159.753,194.578 169.88,192.11 177.132,191.867C178.738,191.813 180.419,192.985 182.131,194.447C185.159,197.031 188.138,200.649 190.476,202.404C190.999,202.797 192.469,204.169 193.64,204.928C194.455,205.457 195.227,205.681 195.707,205.636C196.778,205.537 198.023,204.677 199.211,203.465C200.489,202.162 201.748,200.427 202.856,199.875C203.62,199.493 204.485,199.623 205.395,199.92C206.583,200.309 207.825,201.011 209.057,201.734C210.713,202.707 212.35,203.717 213.815,204.251C215.054,204.702 216.204,204.823 217.202,204.525C218.943,204.005 220.474,202.253 221.51,200.886C221.683,200.658 222.055,200.384 222.366,200.111C222.731,199.79 223.042,199.466 223.208,199.208C223.507,198.74 223.541,198.295 223.465,197.945C223.368,197.505 223.11,197.031 222.38,196.791C219.067,195.701 216.379,192.317 217.552,188.659C217.785,188.653 218.126,188.651 218.399,188.677C220.135,188.846 222.599,189.444 224.22,189.731C225.146,189.894 225.869,189.936 226.218,189.872C234.414,188.361 238.938,182.941 240.043,174.739C240.102,174.3 239.96,173.665 239.444,173.013C238.498,171.818 235.922,170.053 235.35,169.612C233.051,167.84 230.197,165.891 227.2,164.867C223.948,163.755 220.537,163.708 217.389,165.854C214.983,167.494 213.985,169.784 213.731,172.276C213.502,174.518 213.904,176.932 214.335,179.091C214.464,179.739 214.281,180.391 213.937,181.03C213.504,181.834 212.819,182.606 212.006,183.323C209.441,185.588 205.618,187.322 203.554,187.347C202.711,187.356 202.093,187.198 201.657,186.846C200.956,186.28 200.748,185.319 200.624,184.27C200.335,181.814 200.671,178.874 200.12,176.966C199.902,176.211 199.279,175.424 198.37,174.74C196.752,173.523 194.195,172.528 192.976,172.17C192.105,171.914 191.235,171.956 190.334,172.059C188.062,172.32 187.145,173.211 186.84,174.032C186.594,174.691 186.657,175.476 187.06,176.316C187.585,177.412 188.803,178.716 189.681,179.883C189.863,180.125 190.028,180.36 190.155,180.584C190.177,180.623 190.2,180.67 190.221,180.719L187.312,183.313C186.652,183.341 186.116,183.061 185.643,182.642C184.925,182.007 184.338,181.092 183.766,180.154C182.945,178.806 182.162,177.408 181.261,176.428C180.477,175.576 179.594,175.011 178.588,174.843C175.626,174.345 171.73,175.624 169.231,177.176C165.371,179.574 163.261,183.241 159.897,186.117C154.389,190.828 144.193,192.809 141.581,184.029C141.319,183.149 141.403,182.144 141.471,181.246C141.578,179.849 141.95,178.92 142.584,178.317C143.625,177.328 145.205,177.184 146.841,177.019C148.202,176.882 149.609,176.779 150.908,176.471C153.178,175.933 155.139,174.81 156.227,172.178C157,170.308 156.553,168.27 156.004,166.205C155.619,164.756 155.152,163.29 155.634,161.881C155.751,161.813 156.067,161.631 156.297,161.537C157.325,161.118 158.621,160.791 159.205,160.498C162.052,159.068 164.146,157.165 165.885,154.487C166.891,152.939 168.642,148.182 170.85,144.782C171.5,143.781 172.183,142.903 172.914,142.318C173.412,141.918 173.912,141.646 174.452,141.734C177.445,142.22 180.839,144.653 184.254,146.245C188.293,148.13 192.328,148.899 195.876,145.704C200.453,141.581 205.729,135.836 208.681,130.404C209.143,129.553 210.37,127.376 210.823,125.657C211.107,124.584 211.066,123.631 210.748,123.003C210.463,122.44 209.955,121.941 209.269,121.524C208.552,121.087 207.608,120.72 206.684,120.327C206.067,120.065 205.457,119.793 204.983,119.442C204.722,119.249 204.49,119.048 204.437,118.75C204.377,118.416 204.54,117.979 204.708,117.513C205.089,116.45 205.685,115.326 205.963,114.631C207.057,111.899 207.048,107.411 205.781,104.425C205.029,102.653 203.834,101.4 202.32,101.001C200.869,100.619 198.991,100.981 196.77,102.842C192.161,106.701 193.025,112.169 194.412,117.842C195.021,120.337 195.702,122.867 195.834,125.274C195.953,127.436 195.621,129.494 194.236,131.285C193.231,132.585 190.723,134.43 188.249,135.225C186.869,135.669 185.491,135.84 184.503,135.087C184.283,134.919 184.213,134.632 184.135,134.326C183.986,133.745 183.922,133.076 183.825,132.407C183.553,130.535 182.979,128.741 181.165,127.844C179.959,127.248 178.185,127.244 176.296,127.614C174.622,127.943 172.842,128.538 171.417,129.01C171.049,125.034 170.287,119.776 171.558,116.385C172.302,114.397 173.644,112.641 175.03,110.89C176.56,108.959 178.146,107.041 179.236,104.922C180.183,103.08 180.735,100.98 181.474,98.993C182.11,97.284 182.883,95.655 184.368,94.473C190.514,89.58 201.215,87.976 208.832,88.191C213.667,88.328 218.967,91.22 223.602,92.652C231.509,95.094 239.777,96.663 248.021,97.387C259.642,98.408 271.441,96.672 282.934,95.043Z" style="fill:rgb(167,139,250);"/>
            </g>
            <g transform="matrix(1,0,0,1,-5.23804,-7.4607e-14)">
                <path d="M255.558,164.948C254.102,167.517 250.184,172.238 249.776,175.119C249.482,177.191 252.381,180.455 253.057,182.295C253.774,184.248 252.756,185.806 252.641,187.762C252.404,191.796 258.562,190.341 259.903,188.957C265.776,182.891 262.703,179.531 261.308,172.628C260.469,168.478 262.73,163.387 255.558,164.948Z" style="fill:rgb(167,139,250);fill-opacity:0;"/>
                <path d="M246.527,184.042C246.353,184.819 246.028,186.377 245.969,187.369C245.791,190.396 246.826,192.518 248.23,194.064C249.557,195.525 251.386,196.535 253.572,196.912C257.574,197.603 262.965,195.404 264.704,193.608C270.452,187.671 270.671,183.231 269.655,178.27C269.241,176.247 268.416,174.058 267.859,171.303C267.427,169.167 267.735,166.798 267.318,165.125C266.716,162.712 265.453,160.856 263.492,159.558C261.736,158.396 258.908,157.377 254.137,158.416C252.28,158.82 250.683,159.996 249.745,161.649C248.712,163.471 246.464,166.365 245.062,168.937C244.027,170.834 243.372,172.673 243.159,174.18C242.92,175.861 243.2,177.882 244.12,179.952C244.747,181.361 245.926,182.884 246.527,184.042Z" style="fill:rgb(167,139,250);"/>
            </g>
        </g>
    </g>
    <g id="Calque2" transform="matrix(1.81447,0,0,1.814,16.3881,-21.629)">
        <g>
            <g transform="matrix(0.848773,0,0,0.848773,20.9167,37.7993)">
                <path d="M47.425,53.613C47.321,53.726 47.22,53.84 47.12,53.957C39.299,63.095 25.464,82.299 17.219,95.433C1.441,120.568 -8.852,183.421 -5.207,214.738C-3.422,230.074 -5.198,271.771 3.23,308.575C9.659,336.65 22.217,361.694 43.897,374.176C105.817,409.828 128.699,415.64 171.515,406.009C210.999,397.128 257.319,403.706 297.567,401.015C328.257,398.962 355.633,391.672 375.788,372.177C389.291,359.116 396.349,336.985 400.447,311.126C405.629,278.436 406.536,239.278 418.711,210.945C428.483,188.201 428.106,161.344 421.649,134.902C412.535,97.576 391.461,61.16 374.088,40.134C352.891,14.481 308.676,-1.873 262.535,-6.143C216.899,-10.367 169.883,-2.876 142.878,15.692C130.497,24.206 115.293,27.122 100.392,30.627C81.807,35 63.618,40.098 49.092,51.997C48.594,52.405 48.126,52.848 47.691,53.323L47.425,53.613ZM67.081,72.26C78.293,63.481 92.432,60.301 106.587,56.971C124.784,52.69 143.084,48.39 158.204,37.994C181.134,22.227 221.292,17.217 260.042,20.803C298.29,24.343 335.663,36.11 353.234,57.375C368.624,76 387.293,108.258 395.367,141.322C400.369,161.808 401.425,182.639 393.854,200.259C380.881,230.451 379.248,272.054 373.726,306.889C370.688,326.053 366.988,343.043 356.981,352.722C336.96,372.088 307.389,374.435 275.644,374.699C239.195,375.001 199.917,371.883 165.579,379.607C129.129,387.805 110.108,381.073 57.393,350.722C41.768,341.726 34.236,322.767 29.602,302.532C21.437,266.88 23.396,226.465 21.666,211.608C18.56,184.922 26.687,131.242 40.132,109.824C47.529,98.04 59.778,80.934 67.081,72.26Z" style="fill:rgb(167,139,250);"/>
            </g>
            <g transform="matrix(1.43222,0,0,1.43222,184.658,-135.251)">
                <circle cx="72.24" cy="132.091" r="22.917" style="fill:rgb(167,139,250);stroke:rgb(167,139,250);stroke-width:0.38px;"/>
            </g>
            <g transform="matrix(1.43222,0,0,1.43222,-75.5614,66.2926)">
                <circle cx="72.24" cy="132.091" r="22.917" style="fill:rgb(167,139,250);stroke:rgb(167,139,250);stroke-width:0.38px;"/>
            </g>
            <g transform="matrix(1.43222,0,0,1.43222,183.096,174.274)">
                <circle cx="72.24" cy="132.091" r="22.917" style="fill:rgb(167,139,250);stroke:rgb(167,139,250);stroke-width:0.38px;"/>
            </g>
        </g>
    </g>
</svg>
