<?xml version="1.0" encoding="UTF-8" standalone="no"?><!DOCTYPE svg PUBLIC "-//W3C//DTD SVG 1.1//EN" "http://www.w3.org/Graphics/SVG/1.1/DTD/svg11.dtd"><svg width="100%" height="100%" viewBox="0 0 714 714" version="1.1" xmlns="http://www.w3.org/2000/svg" xmlns:xlink="http://www.w3.org/1999/xlink" xml:space="preserve" xmlns:serif="http://www.serif.com/" style="fill-rule:evenodd;clip-rule:evenodd;stroke-linecap:round;stroke-linejoin:round;stroke-miterlimit:1.5;"><rect id="Plan-de-travail1" serif:id="Plan de travail1" x="0" y="0" width="713.889" height="713.889" style="fill:none;"/><g id="Calque1"><g><path d="M373.766,143.112c-32.828,-3.616 -53.833,13.13 -81.334,23.592c-45.542,17.323 -80.377,32.452 -102.168,81.048c-17.085,38.101 -26.996,87.433 -23.753,128.081c2.627,32.94 8.571,59.084 25.297,87.04c16.051,26.827 49.35,44.844 70.809,67.919c29.647,31.878 82.888,45.629 123.054,38.758c39.704,-6.791 78.181,-19.753 108.878,-43.736c28.794,-22.496 63.656,-43.417 81.326,-77.705c9.987,-19.38 20.504,-41.177 20.079,-63.379c-0.537,-28.066 -30.557,-76.826 -41.543,-102.12c-9.487,-21.843 -1.372,-15.983 -15.5,-34.858c-12.388,-16.549 -17.792,-45.348 -32.36,-60.059c-34.012,-34.347 -86.655,-39.5 -132.785,-44.581Z" style="fill:#00a3ff;fill-opacity:0;"/><path d="M376.047,122.404c-36.573,-4.028 -60.384,13.173 -91.023,24.828c-51.094,19.436 -89.321,37.474 -113.77,91.996c-18.44,41.123 -29.01,94.39 -25.511,138.262c2.903,36.387 9.711,65.197 28.187,96.079c9.193,15.365 23.085,28.432 37.992,40.737c12.296,10.149 25.302,19.772 35.44,30.673c34.198,36.774 95.489,53.031 141.821,45.107c43.149,-7.381 84.833,-21.792 118.193,-47.855c31.064,-24.269 67.955,-47.587 87.018,-84.579c11.516,-22.348 22.88,-47.72 22.39,-73.321c-0.256,-13.368 -5.629,-30.819 -13.422,-48.708c-9.813,-22.526 -23.253,-46.142 -29.842,-61.313c-3.932,-9.052 -4.165,-12.379 -4.93,-15.384c-1.32,-5.184 -2.898,-10.161 -13.001,-23.658c-6.622,-8.847 -10.682,-21.777 -15.932,-33.413c-5.012,-11.11 -10.867,-21.313 -18.303,-28.821c-37.364,-37.733 -94.63,-45.048 -145.307,-50.63Zm-4.561,41.416c41.59,4.581 89.597,7.565 120.262,38.532c5.604,5.659 8.995,14.284 12.627,22.83c5.407,12.722 10.763,25.576 17.857,35.054c6.49,8.67 5.965,9.317 7.119,13.883c0.93,3.679 2.44,8.705 5.951,16.79c6.594,15.182 20.041,38.814 29.861,61.355c5.297,12.159 9.788,23.779 9.962,32.865c0.36,18.805 -9.31,37.021 -17.769,53.436c-16.278,31.588 -49.107,50.108 -75.633,70.832c-28.034,21.903 -63.304,33.416 -99.564,39.618c-34,5.816 -79.191,-5.427 -104.286,-32.411c-11.322,-12.174 -25.695,-23.097 -39.427,-34.431c-11.12,-9.18 -21.902,-18.534 -28.76,-29.997c-14.975,-25.03 -20.055,-48.507 -22.408,-77.999c-2.985,-37.425 6.265,-82.821 21.996,-117.901c19.137,-42.677 50.57,-54.887 90.565,-70.1c11.371,-4.326 21.681,-9.661 32.116,-14.302c11.928,-5.306 24.014,-9.763 39.53,-8.054l0.001,0Z" style="fill:#fff;"/><path d="M273.745,205.881c-10.97,0 -4.135,15.692 -7.427,22.274c-1.282,2.565 -5.096,6.308 -3.3,9.9c2.099,4.197 8.309,6.216 12.377,8.249c0.823,0.412 11.57,2.457 13.203,0.825c3.542,-3.541 10.57,-4.793 14.028,-8.249c0.447,-0.447 0.447,-10.278 -0,-10.725c-5.074,-5.072 -15.819,-10.04 -20.629,-14.849c-2.919,-2.918 -4.2,-8.25 -9.902,-8.25" style="fill:#fff;"/><path d="M270.11,204.422c-0.603,0.238 -1.137,0.536 -1.609,0.882c-1.868,1.369 -2.852,3.557 -3.224,6.235c-0.373,2.678 -0.143,5.897 -0.059,8.96c0.071,2.563 0.097,5.006 -0.763,6.724c-0.791,1.581 -2.501,3.608 -3.357,5.766c-0.776,1.954 -0.946,3.993 0.056,5.998c1,1.998 2.745,3.619 4.834,4.954c2.694,1.723 5.977,2.978 8.476,4.227c0.629,0.314 6.559,1.59 10.68,1.664c1.412,0.025 2.632,-0.101 3.449,-0.366c0.65,-0.211 1.138,-0.523 1.478,-0.864c1.609,-1.609 4.038,-2.651 6.43,-3.73c2.874,-1.298 5.709,-2.631 7.598,-4.519c0.181,-0.181 0.557,-0.661 0.702,-1.526c0.153,-0.914 0.243,-3.111 0.243,-5.31c0,-2.198 -0.09,-4.395 -0.243,-5.309c-0.145,-0.865 -0.521,-1.345 -0.702,-1.526c-5.074,-5.073 -15.82,-10.041 -20.629,-14.849c-1.415,-1.414 -2.417,-3.425 -3.772,-5.07c-1.768,-2.147 -3.998,-3.79 -7.603,-3.79c-0.929,0 -1.716,0.609 -1.985,1.449Zm4.516,3.347c-0.268,0.126 -0.566,0.196 -0.881,0.196c-1.145,-0 -2.024,0.195 -2.677,0.628c-0.696,0.461 -1.085,1.183 -1.345,2.025c-0.358,1.156 -0.465,2.517 -0.487,3.964c-0.045,2.864 0.256,6.025 0.148,8.81c-0.085,2.175 -0.427,4.145 -1.202,5.695c-0.646,1.291 -1.926,2.88 -2.821,4.596c-0.577,1.106 -1.062,2.276 -0.48,3.44c0.874,1.747 2.66,2.976 4.594,4.044c2.298,1.269 4.84,2.268 6.852,3.274c0.523,0.261 5.47,1.163 8.892,1.225c0.788,0.014 1.815,-0.131 2.069,-0.169c1.928,-1.849 4.706,-3.163 7.499,-4.423c2.166,-0.978 4.347,-1.908 5.905,-3.242l-0.005,-8.654c-5.239,-4.916 -15.496,-9.732 -20.163,-14.399c-1.245,-1.244 -2.227,-2.887 -3.327,-4.427c-0.716,-1.003 -1.488,-1.976 -2.571,-2.583Z" style="fill:#fff;"/><path d="M589.565,388.635c-5.477,-2.706 -20.112,-25.593 -27.168,-23.362c-13.462,4.255 -17.105,20.72 -26.97,29.132c-2.215,1.889 -8.91,8.472 -11.735,7.025c-6.5,-3.328 -5.855,-18.377 -9.594,-24.847c-10.355,-17.921 -26.98,-18.971 -42.385,-30.276c-5.094,-3.738 -12.631,-13.912 -19.345,-11.72c-7.722,2.521 -7.226,13.244 -1.656,17.974c2.88,2.445 7.305,2.479 9.834,5.237c0.767,0.836 6.028,7.488 5.267,8.416c-5.652,6.897 -15.524,14.003 -24.007,16.851c-17.199,5.775 -20.26,-22.314 -25.673,-32.646c-1.858,-3.545 -10.12,-7.007 -11.899,-1.255c-1.552,5.018 1.615,10.92 3.041,15.684c3.767,12.582 6.747,28.762 21.743,32.155c8.277,1.873 19.187,-8.991 24.639,2.24c1.099,2.263 -3.323,8.439 -4.461,10.313c-6.093,10.04 -15.566,17.183 -22.022,26.864c-8.193,12.285 -1.263,21.288 -5.037,32.296c-2.499,7.291 -10.284,14.475 -14.797,20.749c-9.381,13.043 -16.507,28.125 -27.435,40.003c-4.515,4.908 -14.583,10.158 -21.433,6.424c-5.668,-3.091 -7.341,-12.879 -10.027,-17.994c-5.874,-11.185 -13.155,-21.686 -14.169,-34.664c-1.091,-13.958 4.125,-30.856 -0.716,-44.372c-11.783,-32.891 -57.063,-5.846 -71.391,-37.435c-5.459,-12.035 -4.296,-23.346 -3.8,-36.222c0.332,-8.614 0.077,-16.047 5.304,-23.247c11.704,-16.121 43.642,-26.558 62.868,-27.201c7.326,-0.244 16.089,12.311 22.119,16.835c1.137,0.854 5.209,4.767 6.709,4.628c3.249,-0.301 7.282,-7.209 10.404,-8.767c6.665,-3.324 16.837,8.861 22.694,7.114c2.316,-0.691 4.273,-3.115 5.651,-4.933c0.792,-1.044 3.609,-2.733 2.364,-3.143c-6.453,-2.123 -11.467,-8.994 -8.541,-16.159c0.831,-2.033 12.821,1.714 14.797,1.35c11.796,-2.173 18.27,-10.007 19.861,-21.808c0.198,-1.472 -5.476,-5.256 -6.522,-6.061c-6.837,-5.269 -16.926,-11.663 -25.55,-5.785c-6.355,4.332 -5.153,12.16 -3.889,18.496c1.467,7.36 -12.928,15.286 -18.822,15.355c-9.589,0.113 -5.711,-11.909 -7.378,-17.679c-0.796,-2.752 -7.223,-5.32 -9.72,-6.053c-1.085,-0.319 -2.171,-0.23 -3.294,-0.102c-9.704,1.112 2.135,8.405 1.814,11.906c-0.084,0.919 -5.33,5.488 -6.183,5.6c-7.315,0.953 -8.867,-12.234 -14.52,-13.184c-4.165,-0.699 -9.626,1.17 -13.14,3.351c-5.923,3.678 -9.131,9.334 -14.292,13.746c-9.615,8.221 -27.338,11.079 -31.899,-4.243c-0.479,-1.609 -0.375,-3.445 -0.25,-5.089c1.082,-14.215 18.503,-3.531 23.15,-14.768c2.067,-4.998 -2.941,-10.865 -0.862,-16.217c0.571,-1.47 5.028,-2.312 6.493,-3.048c4.092,-2.054 7.101,-4.792 9.6,-8.639c2.612,-4.021 8.452,-21.927 15.433,-20.793c9.645,1.566 21.997,15.398 31.663,6.694c6.971,-6.278 15.025,-15.013 19.521,-23.287c0.966,-1.777 4.257,-7.495 3.194,-9.596c-1.443,-2.853 -9.323,-3.262 -10.029,-7.201c-0.358,-2.002 1.762,-5.727 2.496,-7.559c3.069,-7.664 -0.097,-25.176 -11.058,-15.998c-13.048,10.925 6.291,31.158 -3.638,43.997c-2.9,3.75 -12.967,10.198 -18.079,6.308c-2.797,-2.129 -0.532,-8.936 -4.865,-11.077c-3.875,-1.916 -12.346,1.639 -16.143,2.733l-0.003,-0.038c-0.365,-6.556 -2.217,-16.845 0.145,-23.149c2.469,-6.588 8.791,-11.716 12.065,-18.082c2.878,-5.597 3.309,-12.785 8.554,-16.959c9.927,-7.901 27.184,-10.588 39.486,-10.241c7.711,0.218 16.184,4.76 23.576,7.043c12.183,3.761 24.924,6.178 37.626,7.293c18.17,1.596 36.619,-1.188 54.577,-3.73l0.019,-0c14.711,7.228 40.562,40.267 45.125,54.422c12.769,39.606 18.339,55.924 30.202,76.254c19.26,33.004 32.35,59.16 27.889,90.895l-5.526,3.246Z" style="fill:#fff;"/><path d="M315.752,223.797c-0.35,0.133 -1.764,0.51 -1.999,-1.956c-0.003,-0.028 -0.005,-0.055 -0.006,-0.082c-0.379,-6.797 -2.174,-17.462 0.274,-23.996c1.309,-3.491 3.613,-6.612 6.049,-9.687c2.213,-2.794 4.538,-5.551 6.114,-8.617c1.402,-2.726 2.196,-5.845 3.29,-8.786c1.255,-3.374 2.889,-6.517 5.82,-8.85c10.274,-8.177 28.109,-11.053 40.841,-10.693c7.886,0.222 16.572,4.8 24.133,7.134c12.043,3.719 24.637,6.106 37.194,7.209c17.77,1.56 35.809,-1.124 53.383,-3.616c0.265,-0.079 0.604,-0.123 1.03,-0.123c0.319,0 0.633,0.073 0.919,0.214c6.054,2.975 13.976,10.158 21.563,18.688c11.278,12.68 21.834,28.305 24.626,36.965c12.699,39.389 18.22,55.624 30.019,75.843c19.534,33.475 32.677,60.046 28.152,92.235c-0.088,0.629 -0.459,1.184 -1.007,1.506l-5.527,3.246c-0.605,0.356 -1.348,0.382 -1.978,0.072c-1.128,-0.558 -2.628,-1.826 -4.324,-3.578c-3.454,-3.568 -7.991,-9.256 -12.372,-13.711c-2.326,-2.364 -4.583,-4.38 -6.6,-5.415c-0.872,-0.448 -1.641,-0.755 -2.321,-0.54c-6.263,1.98 -10.172,6.879 -13.732,12.182c-3.934,5.86 -7.444,12.225 -12.514,16.549c-1.623,1.384 -5.564,5.146 -8.784,6.776c-2.046,1.036 -3.938,1.192 -5.253,0.519c-3.042,-1.558 -4.935,-5.192 -6.166,-9.618c-1.529,-5.501 -2.106,-12.278 -4.281,-16.042c-4.951,-8.566 -11.42,-13.077 -18.473,-16.821c-7.46,-3.961 -15.551,-7.1 -23.342,-12.817c-3.042,-2.233 -6.955,-6.776 -11.046,-9.579c-2.151,-1.473 -4.311,-2.529 -6.419,-1.841c-2.945,0.962 -4.267,3.527 -4.378,6.263c-0.12,2.972 1.116,6.183 3.424,8.143c1.255,1.066 2.868,1.561 4.422,2.135c2.098,0.776 4.109,1.658 5.598,3.282c0.66,0.72 4.397,5.454 5.453,7.825c0.7,1.571 0.324,2.791 -0.109,3.32c-5.874,7.167 -16.14,14.545 -24.956,17.505c-7.969,2.676 -13.364,-0.807 -17.315,-6.857c-5.151,-7.888 -7.596,-20.555 -10.866,-26.797c-0.708,-1.35 -2.689,-2.603 -4.609,-3.053c-1.435,-0.336 -2.948,-0.192 -3.455,1.446c-0.66,2.134 -0.244,4.452 0.416,6.747c0.774,2.69 1.92,5.349 2.631,7.725c1.849,6.175 3.486,13.24 6.52,19.172c2.813,5.5 6.861,10.004 13.687,11.548c1.764,0.399 3.664,0.068 5.6,-0.426c2.28,-0.582 4.599,-1.415 6.828,-1.956c3.19,-0.774 6.223,-0.921 8.848,0.438c1.791,0.928 3.442,2.554 4.778,5.306c0.514,1.06 0.483,2.686 -0.183,4.499c-1.042,2.838 -3.538,6.431 -4.372,7.805c-6.108,10.065 -15.597,17.233 -22.07,26.939c-4.59,6.883 -4.015,12.679 -3.647,18.421c0.279,4.365 0.455,8.707 -1.152,13.394c-2.559,7.464 -10.457,14.868 -15.076,21.291c-9.43,13.109 -16.61,28.258 -27.594,40.196c-2.939,3.196 -8.046,6.527 -13.268,7.803c-3.731,0.912 -7.509,0.777 -10.695,-0.96c-2.619,-1.428 -4.563,-4.04 -6.076,-7.102c-1.956,-3.962 -3.193,-8.696 -4.799,-11.752c-6.005,-11.435 -13.364,-22.203 -14.401,-35.47c-0.554,-7.078 0.477,-14.901 1.047,-22.667c0.541,-7.36 0.679,-14.671 -1.648,-21.165c-5.562,-15.527 -19.195,-16.608 -32.964,-17.834c-15.323,-1.364 -30.835,-2.848 -38.362,-19.443c-5.603,-12.351 -4.494,-23.95 -3.985,-37.163c0.349,-9.049 0.21,-16.827 5.7,-24.39c4.857,-6.69 13.043,-12.477 22.429,-17.007c13.846,-6.682 30.287,-10.659 42.055,-11.053c3.358,-0.112 7.057,1.961 10.636,5.015c4.651,3.968 9.212,9.541 12.803,12.236c0.68,0.51 2.411,2.118 4.01,3.292c0.483,0.354 1.204,0.755 1.454,0.891c0.403,-0.11 0.802,-0.43 1.243,-0.787c0.812,-0.656 1.64,-1.525 2.469,-2.426c1.996,-2.166 4.031,-4.446 5.758,-5.307c1.755,-0.876 3.691,-0.988 5.733,-0.54c2.516,0.552 5.236,2.008 7.901,3.573c1.986,1.166 3.944,2.386 5.763,3.202c1.354,0.608 2.576,1.061 3.63,0.746c1.92,-0.572 3.445,-2.689 4.587,-4.195c0.214,-0.282 0.541,-0.609 0.911,-0.948c-6.235,-3.259 -10.386,-10.465 -7.357,-17.882c0.377,-0.921 1.528,-1.848 3.543,-1.901c2.246,-0.059 6.175,0.773 9.315,1.407c1.506,0.304 3.394,0.551 3.549,0.571c10.615,-1.977 16.477,-9.002 18.045,-19.53c-0.298,-0.325 -1.022,-1.095 -1.629,-1.6c-1.586,-1.319 -3.473,-2.6 -4.029,-3.029c-3.253,-2.507 -7.268,-5.302 -11.507,-6.751c-3.841,-1.312 -7.881,-1.496 -11.598,1.038c-2.606,1.776 -3.627,4.288 -3.903,6.986c-0.315,3.088 0.29,6.408 0.883,9.381c0.713,3.577 -1.398,7.391 -4.958,10.534c-4.792,4.229 -12.027,7.266 -15.882,7.311c-2.524,0.03 -4.317,-0.649 -5.623,-1.703c-1.885,-1.522 -2.798,-3.949 -3.131,-6.77c-0.424,-3.599 0.158,-7.914 -0.651,-10.711c-0.072,-0.251 -0.29,-0.468 -0.533,-0.706c-0.434,-0.426 -0.995,-0.829 -1.61,-1.21c-2.089,-1.297 -4.779,-2.31 -6.162,-2.716c-0.813,-0.239 -1.628,-0.127 -2.47,-0.031c-0.776,0.089 -1.528,0.336 -1.889,0.468c0.083,0.208 0.214,0.508 0.343,0.719c0.386,0.627 0.904,1.286 1.445,1.952c1.229,1.512 2.547,3.059 3.194,4.366c0.451,0.912 0.627,1.773 0.559,2.521c-0.028,0.303 -0.137,0.741 -0.445,1.239c-0.251,0.404 -0.729,0.983 -1.35,1.62c-1.41,1.445 -3.607,3.295 -4.758,4.024c-0.628,0.398 -1.153,0.556 -1.436,0.592c-2.485,0.324 -4.494,-0.512 -6.209,-2.03c-1.406,-1.243 -2.604,-2.995 -3.722,-4.83c-0.962,-1.578 -1.867,-3.217 -2.877,-4.515c-0.699,-0.897 -1.39,-1.662 -2.326,-1.819c-3.714,-0.624 -8.563,1.121 -11.696,3.066c-5.829,3.62 -8.958,9.217 -14.037,13.559c-10.647,9.105 -30.199,11.735 -35.249,-5.231c-0.55,-1.849 -0.475,-3.955 -0.332,-5.842c0.268,-3.51 1.427,-5.755 3.02,-7.268c2.25,-2.137 5.551,-2.792 9.087,-3.148c1.938,-0.195 3.944,-0.323 5.795,-0.762c2.278,-0.54 4.309,-1.587 5.401,-4.228c0.862,-2.085 0.088,-4.341 -0.524,-6.645c-0.848,-3.19 -1.556,-6.438 -0.355,-9.53c0.313,-0.806 1.136,-1.652 2.388,-2.277c1.598,-0.798 4.088,-1.364 5.112,-1.878c3.747,-1.881 6.5,-4.39 8.788,-7.913c1.851,-2.849 5.333,-12.569 9.661,-17.761c2.39,-2.866 5.122,-4.397 7.853,-3.954c4.98,0.809 10.689,4.718 16.37,7.367c4.71,2.196 9.428,3.561 13.565,-0.164c6.81,-6.133 14.692,-14.652 19.085,-22.734c0.55,-1.013 1.904,-3.37 2.675,-5.528c0.215,-0.602 0.385,-1.184 0.451,-1.701c0.02,-0.158 0.014,-0.408 0.012,-0.479c-0.279,-0.485 -0.957,-0.74 -1.672,-1.077c-1.231,-0.581 -2.674,-1.103 -3.961,-1.728c-2.37,-1.15 -4.168,-2.734 -4.56,-4.922c-0.194,-1.083 0.058,-2.553 0.602,-4.069c0.612,-1.707 1.563,-3.516 2.01,-4.632c1.364,-3.406 1.329,-9.002 -0.252,-12.726c-0.607,-1.43 -1.396,-2.611 -2.618,-2.932c-1.321,-0.348 -2.895,0.34 -4.916,2.032c-3.343,2.799 -4.135,6.337 -3.921,10.182c0.16,2.881 0.865,5.924 1.618,9.007c1.013,4.141 2.11,8.347 2.33,12.342c0.24,4.378 -0.549,8.515 -3.355,12.144c-1.913,2.473 -6.645,6.043 -11.353,7.557c-3.561,1.145 -7.085,1.075 -9.636,-0.866c-1.508,-1.148 -2.144,-3.212 -2.474,-5.571c-0.137,-0.976 -0.246,-2.003 -0.49,-2.959c-0.243,-0.955 -0.598,-1.861 -1.562,-2.338c-1.222,-0.604 -3.025,-0.379 -4.938,-0.004c-3.016,0.592 -6.252,1.768 -8.535,2.508c-0.596,0.822 -1.747,0.445 -1.747,0.445l-0.078,0.033Zm175.76,-57.826c5.635,2.966 12.8,9.641 19.731,17.434c10.844,12.191 21.09,27.148 23.774,35.474c12.839,39.824 18.457,56.223 30.386,76.665c18.783,32.187 31.745,57.726 27.759,88.561l-3.561,2.092c-1.302,-0.995 -2.962,-2.83 -4.866,-4.971c-3.959,-4.455 -8.726,-10.243 -13.027,-13.976c-2.043,-1.772 -4.012,-3.095 -5.759,-3.731c-1.524,-0.555 -2.934,-0.627 -4.18,-0.233c-7.199,2.276 -11.842,7.736 -15.936,13.833c-3.719,5.539 -6.964,11.613 -11.758,15.701c-1.287,1.098 -4.129,3.843 -6.795,5.553c-0.742,0.476 -1.46,0.871 -2.114,1.074c-0.191,0.06 -0.5,0.094 -0.575,0.101c-2.125,-1.122 -3.134,-3.88 -4,-6.996c-1.625,-5.847 -2.377,-13.011 -4.689,-17.011c-5.405,-9.355 -12.425,-14.329 -20.126,-18.417c-7.292,-3.871 -15.216,-6.909 -22.831,-12.497c-3.07,-2.253 -7.028,-6.828 -11.156,-9.656c-3.331,-2.282 -6.803,-3.43 -10.067,-2.365c-4.778,1.56 -7.069,5.617 -7.248,10.055c-0.17,4.202 1.628,8.718 4.89,11.488c1.624,1.38 3.663,2.124 5.674,2.867c1.467,0.542 2.932,1.055 3.972,2.19c0.458,0.499 2.599,3.185 3.944,5.322c0.224,0.356 0.454,0.786 0.62,1.111c-5.511,6.387 -14.587,12.817 -22.431,15.451c-5.791,1.945 -9.63,-0.789 -12.5,-5.185c-5.081,-7.78 -7.439,-20.296 -10.665,-26.452c-1.385,-2.645 -5.598,-5.317 -9.255,-5.436c-2.882,-0.093 -5.433,1.15 -6.479,4.531c-0.726,2.346 -0.611,4.856 -0.055,7.381c0.725,3.292 2.222,6.614 3.091,9.517c1.917,6.406 3.654,13.721 6.801,19.874c3.368,6.584 8.307,11.866 16.477,13.715c1.933,0.437 3.989,0.311 6.092,-0.116c2.727,-0.554 5.548,-1.628 8.238,-2.281c2.143,-0.52 4.187,-0.824 5.95,0.089c1.116,0.578 2.07,1.65 2.905,3.345c-0.004,0.081 -0.02,0.331 -0.055,0.492c-0.122,0.567 -0.376,1.203 -0.686,1.864c-1.11,2.372 -2.925,4.957 -3.587,6.047c-6.077,10.014 -15.535,17.132 -21.975,26.789c-4.406,6.608 -4.778,12.325 -4.523,17.878c0.225,4.907 1.043,9.666 -0.75,14.898c-2.441,7.119 -10.112,14.083 -14.518,20.209c-9.333,12.975 -16.405,27.992 -27.277,39.808c-2.479,2.695 -6.788,5.5 -11.192,6.577c-2.686,0.657 -5.417,0.68 -7.71,-0.571c-2.457,-1.339 -3.942,-4.207 -5.21,-7.217c-1.487,-3.532 -2.605,-7.316 -3.971,-9.916c-5.743,-10.937 -12.945,-21.169 -13.936,-33.858c-0.538,-6.881 0.494,-14.486 1.049,-22.037c0.584,-7.958 0.634,-15.854 -1.881,-22.875c-6.221,-17.366 -21.118,-19.208 -36.517,-20.579c-13.846,-1.233 -28.137,-2.02 -34.938,-17.014c-5.316,-11.72 -4.098,-22.743 -3.615,-35.281c0.315,-8.18 -0.055,-15.267 4.908,-22.104c4.507,-6.207 12.159,-11.498 20.868,-15.701c13.298,-6.418 29.081,-10.263 40.383,-10.641c2.504,-0.084 5.124,1.742 7.793,4.019c4.719,4.027 9.362,9.665 13.006,12.399c0.815,0.612 3.106,2.75 4.931,3.933c1.27,0.824 2.473,1.173 3.222,1.104c1.669,-0.155 3.609,-1.496 5.461,-3.383c1.992,-2.031 3.954,-4.734 5.68,-5.595c1.192,-0.594 2.54,-0.392 3.958,0.071c1.852,0.605 3.788,1.7 5.707,2.827c2.581,1.516 5.133,3.089 7.417,3.921c1.93,0.703 3.722,0.891 5.278,0.427c2.713,-0.81 5.1,-3.54 6.715,-5.67c0.27,-0.356 0.85,-0.783 1.334,-1.208c0.569,-0.5 1.054,-1.004 1.312,-1.407c0.467,-0.728 0.519,-1.423 0.4,-1.967c-0.15,-0.686 -0.552,-1.424 -1.691,-1.799c-5.162,-1.698 -9.352,-6.971 -7.525,-12.671c0.364,-0.01 0.895,-0.013 1.321,0.029c2.706,0.262 6.546,1.195 9.073,1.641c1.443,0.255 2.57,0.32 3.113,0.22c12.774,-2.354 19.826,-10.799 21.548,-23.579c0.093,-0.684 -0.129,-1.675 -0.933,-2.69c-1.474,-1.861 -5.49,-4.613 -6.381,-5.299c-3.584,-2.762 -8.032,-5.798 -12.703,-7.394c-5.069,-1.732 -10.385,-1.807 -15.292,1.538c-3.749,2.556 -5.304,6.123 -5.701,10.006c-0.357,3.493 0.271,7.255 0.941,10.619c0.202,1.01 -0.083,2.026 -0.619,3.021c-0.675,1.253 -1.744,2.456 -3.01,3.574c-3.998,3.529 -9.956,6.231 -13.173,6.269c-1.313,0.015 -2.277,-0.231 -2.957,-0.779c-1.093,-0.883 -1.417,-2.38 -1.609,-4.015c-0.451,-3.827 0.072,-8.408 -0.787,-11.381c-0.34,-1.176 -1.31,-2.403 -2.727,-3.469c-2.522,-1.896 -6.507,-3.446 -8.407,-4.004c-1.357,-0.398 -2.713,-0.333 -4.118,-0.172c-3.541,0.405 -4.969,1.794 -5.445,3.073c-0.383,1.028 -0.285,2.251 0.342,3.559c0.819,1.708 2.717,3.741 4.086,5.558c0.284,0.378 0.54,0.743 0.738,1.093c0.034,0.06 0.07,0.135 0.103,0.21l-4.534,4.042c-1.029,0.043 -1.864,-0.393 -2.601,-1.045c-1.12,-0.991 -2.034,-2.416 -2.925,-3.878c-1.28,-2.1 -2.5,-4.279 -3.904,-5.804c-1.222,-1.328 -2.6,-2.208 -4.167,-2.471c-4.617,-0.776 -10.689,1.217 -14.584,3.636c-6.016,3.735 -9.305,9.45 -14.546,13.932c-8.586,7.34 -24.476,10.426 -28.549,-3.254c-0.408,-1.371 -0.277,-2.937 -0.17,-4.337c0.166,-2.177 0.746,-3.624 1.734,-4.563c1.623,-1.541 4.085,-1.766 6.636,-2.023c2.12,-0.213 4.313,-0.374 6.338,-0.854c3.538,-0.839 6.594,-2.588 8.29,-6.69c1.205,-2.914 0.508,-6.088 -0.347,-9.307c-0.6,-2.258 -1.328,-4.542 -0.577,-6.736c0.182,-0.107 0.675,-0.39 1.033,-0.536c1.602,-0.653 3.622,-1.163 4.532,-1.62c4.437,-2.227 7.702,-5.194 10.412,-9.366c1.568,-2.413 4.297,-9.824 7.737,-15.122c1.013,-1.56 2.079,-2.927 3.217,-3.84c0.777,-0.623 1.556,-1.047 2.398,-0.91c4.665,0.758 9.955,4.548 15.277,7.03c6.296,2.936 12.584,4.136 18.114,-0.844c7.133,-6.424 15.357,-15.375 19.958,-23.84c0.72,-1.325 2.631,-4.717 3.339,-7.395c0.442,-1.674 0.378,-3.157 -0.117,-4.136c-0.444,-0.878 -1.236,-1.655 -2.305,-2.306c-1.118,-0.68 -2.589,-1.252 -4.03,-1.864c-0.962,-0.409 -1.912,-0.832 -2.652,-1.38c-0.406,-0.3 -0.767,-0.613 -0.85,-1.078c-0.093,-0.52 0.161,-1.2 0.422,-1.927c0.595,-1.656 1.523,-3.408 1.957,-4.491c1.704,-4.257 1.691,-11.249 -0.284,-15.903c-1.172,-2.76 -3.035,-4.713 -5.394,-5.334c-2.262,-0.595 -5.189,-0.032 -8.651,2.867c-7.183,6.015 -5.836,14.534 -3.675,23.373c0.95,3.888 2.01,7.831 2.216,11.582c0.185,3.368 -0.331,6.574 -2.49,9.365c-1.567,2.027 -5.476,4.9 -9.332,6.14c-2.15,0.691 -4.297,0.957 -5.837,-0.215c-0.344,-0.262 -0.452,-0.709 -0.575,-1.187c-0.231,-0.905 -0.331,-1.947 -0.482,-2.989c-0.424,-2.918 -1.319,-5.713 -4.147,-7.111c-1.879,-0.929 -4.644,-0.935 -7.587,-0.357c-2.611,0.512 -5.384,1.439 -7.606,2.175c-0.572,-6.195 -1.76,-14.388 0.22,-19.673c1.161,-3.096 3.252,-5.834 5.413,-8.561c2.383,-3.009 4.856,-5.999 6.554,-9.299c1.476,-2.87 2.337,-6.144 3.489,-9.239c0.991,-2.664 2.195,-5.201 4.509,-7.043c9.581,-7.625 26.258,-10.123 38.13,-9.788c7.536,0.213 15.796,4.72 23.02,6.95c12.324,3.805 25.211,6.25 38.059,7.378c18.113,1.591 36.502,-1.114 54.415,-3.652Z" style="fill:#fff;"/><path d="M448.845,283.059c-2.271,4.002 -8.376,11.359 -9.013,15.848c-0.458,3.229 4.061,8.315 5.114,11.181c1.117,3.044 -0.468,5.472 -0.648,8.519c-0.37,6.286 9.229,4.02 11.319,1.862c9.153,-9.451 4.364,-14.686 2.189,-25.443c-1.307,-6.466 2.216,-14.4 -8.961,-11.967Z" style="fill:#00a3ff;fill-opacity:0;"/><path d="M434.769,312.81c-0.272,1.212 -0.778,3.64 -0.869,5.185c-0.278,4.716 1.334,8.023 3.524,10.433c2.068,2.275 4.918,3.849 8.325,4.436c6.237,1.077 14.64,-2.35 17.35,-5.148c8.959,-9.251 9.3,-16.169 7.717,-23.899c-0.645,-3.152 -1.932,-6.563 -2.8,-10.856c-0.673,-3.327 -0.193,-7.02 -0.843,-9.626c-0.938,-3.76 -2.907,-6.652 -5.963,-8.674c-2.737,-1.811 -7.145,-3.399 -14.581,-1.78c-2.894,0.63 -5.383,2.462 -6.844,5.038c-1.61,2.838 -5.115,7.348 -7.3,11.355c-1.612,2.957 -2.633,5.821 -2.966,8.171c-0.372,2.619 0.065,5.767 1.499,8.992c0.977,2.196 2.815,4.57 3.751,6.373Z" style="fill:#fff;"/></g></g><g id="Calque2"><g><path d="M127.378,129.486c-0.159,0.173 -0.315,0.35 -0.468,0.529c-12.045,14.069 -33.353,43.638 -46.05,63.86c-24.3,38.699 -40.152,135.473 -34.538,183.69c2.749,23.613 0.013,87.813 12.993,144.478c9.902,43.227 29.241,81.787 62.63,101.006c95.362,54.891 130.602,63.84 196.541,49.012c60.809,-13.675 132.146,-3.546 194.131,-7.69c47.264,-3.16 89.425,-14.385 120.466,-44.402c20.795,-20.108 31.665,-54.184 37.977,-93.997c7.98,-50.332 9.378,-110.623 28.127,-154.247c15.05,-35.018 14.469,-76.369 4.526,-117.082c-14.037,-57.469 -46.492,-113.538 -73.248,-145.91c-32.646,-39.499 -100.74,-64.678 -171.8,-71.253c-70.284,-6.503 -142.691,5.031 -184.281,33.62c-19.068,13.108 -42.483,17.598 -65.431,22.995c-28.623,6.732 -56.636,14.582 -79.007,32.903c-0.767,0.628 -1.488,1.31 -2.158,2.04l-0.41,0.448Zm30.273,28.71c17.267,-13.516 39.043,-18.414 60.842,-23.541c28.024,-6.591 56.208,-13.211 79.494,-29.218c35.314,-24.275 97.161,-31.989 156.839,-26.468c58.904,5.451 116.461,23.567 143.522,56.308c23.701,28.677 52.454,78.343 64.888,129.252c7.703,31.541 9.33,63.615 -2.33,90.743c-19.979,46.486 -22.495,110.542 -30.999,164.175c-4.678,29.507 -10.377,55.667 -25.788,70.569c-30.834,29.817 -76.376,33.431 -125.265,33.836c-56.135,0.466 -116.625,-4.335 -169.509,7.557c-56.136,12.624 -85.429,2.259 -166.614,-44.472c-24.064,-13.851 -35.665,-43.042 -42.801,-74.197c-12.574,-54.894 -9.558,-117.119 -12.221,-139.993c-4.784,-41.089 7.731,-123.738 28.438,-156.715c11.392,-18.144 30.257,-44.481 41.504,-57.836Z" style="fill:#fff;"/><ellipse cx="539.177" cy="76.205" rx="59.554" ry="59.538" style="fill:#fff;stroke:#fff;stroke-width:1px;"/><ellipse cx="67.015" cy="441.805" rx="59.554" ry="59.538" style="fill:#fff;stroke:#fff;stroke-width:1px;"/><ellipse cx="536.342" cy="637.684" rx="59.554" ry="59.538" style="fill:#fff;stroke:#fff;stroke-width:1px;"/></g></g></svg>