<?xml version="1.0" encoding="UTF-8" standalone="no"?>
<!DOCTYPE svg PUBLIC "-//W3C//DTD SVG 1.1//EN" "http://www.w3.org/Graphics/SVG/1.1/DTD/svg11.dtd">
<svg width="100%" height="100%" viewBox="0 0 500 500" version="1.1" xmlns="http://www.w3.org/2000/svg" xmlns:xlink="http://www.w3.org/1999/xlink" xml:space="preserve" xmlns:serif="http://www.serif.com/" style="fill-rule:evenodd;clip-rule:evenodd;stroke-linejoin:round;stroke-miterlimit:2;">
    <g transform="matrix(0.816611,0,0,0.816611,214.231,163.46)">
        <circle cx="43.802" cy="105.974" r="306.143" style="fill:rgb(192,132,252);"/>
    </g>
    <g transform="matrix(0.964537,0,0,0.936979,-10.8108,8.07206)">
        <path d="M409.9,258.2C409.9,181.3 347.3,118.7 270.4,118.7C193.5,118.7 130.9,181.3 130.9,258.2C130.9,335.1 193.5,397.7 270.4,397.7C347.3,397.7 409.9,335.1 409.9,258.2ZM157.3,258.2C157.3,225.2 171.5,195.5 194.1,174.8C193.3,182.1 190.7,188.9 186.7,194.7C192.7,198 199.6,199.9 207,199.9L207.7,199.9C215.2,197 221.7,192.1 226.4,185.7C215.7,183.9 206.5,178 200.2,169.8C209.5,162.4 220.1,156.4 231.5,152.2C229.3,157.3 228.1,162.8 228.1,168.7C228.1,171.1 228.3,173.3 228.7,175.6C230.7,175.3 232.7,175.2 234.8,175.2C238.8,175.2 242.6,175.8 246.2,176.8C247.8,177.2 249.4,177.8 251,178.4C251.5,177.8 251.9,177.2 252.3,176.6C253.8,174.5 255,172.3 256.1,170C258.6,164.6 260,158.6 260,152.3C260,150.1 259.8,148 259.5,145.8L259.6,145.8C261.1,150.1 261.9,154.6 261.9,159.4C261.9,160.5 261.9,161.7 261.8,162.8C262.4,163.4 263.1,164.1 263.8,164.7C263.5,166.7 263.3,168.8 263.3,170.9C263.3,175.6 264.1,180.2 265.6,184.5C261.3,186.9 256.6,188.6 251.6,189.4L250.1,189.4C243.7,189.4 237.6,188 232.1,185.4C230.3,186.4 228.6,187.6 227,188.8C224.2,195.6 219.6,201.5 213.9,205.9C212.4,209.5 211.4,213.3 211,217.3C204.2,218.5 198,221.2 192.8,225.2C195.7,230.1 199.5,234.4 204.1,237.8C205.2,237.9 206.3,237.9 207.4,237.9C220.5,237.9 230.9,231 238.6,221.7C239.5,221.5 240.4,221.4 241.3,221.2C243.3,220.9 245.3,220.8 247.4,220.8L254,220.8C264.2,221.7 273.4,226.3 280.1,233.3C269.1,234.7 259.5,240.3 252.8,248.4C251.9,248.1 251,247.7 250.1,247.3C244.6,244.8 239.8,241.3 235.8,236.9C234.1,236.7 232.3,236.6 230.5,236.6C207.2,236.6 188.4,255.5 188.4,278.7C188.4,288 191.4,296.6 196.5,303.5C200.7,302.1 205.1,301.4 209.7,301.4C223.7,301.4 236,308.2 243.7,318.7C243.8,318.7 244.3,319.1 244.6,319.6C241.4,325.5 239.6,332.3 239.6,339.5C239.6,348.3 242.3,356.5 246.9,363.2C248.6,365.7 250.7,368.1 252.9,370.2C198.8,361.5 157.3,314.6 157.3,258.2ZM272.9,371.2C274.9,370.4 276.8,369.5 278.6,368.4C279.1,364.8 280.1,361.3 281.4,358C284.9,349.6 291,342.6 298.7,338C299,336.1 299.1,334.2 299.1,332.2C299.1,329 298.7,325.8 298,322.8C299.3,321.9 300.4,321 301.6,320C305.1,316.9 308.1,313.3 310.5,309.2C309.5,308.3 308.5,307.4 307.4,306.6C314.9,301.7 320.7,294.4 323.8,285.8C321.7,284.3 319.5,282.9 317.2,281.8C315.5,282 313.7,282.1 311.9,282.1C305.5,282.1 299.4,280.7 293.9,278.1C293.9,278.1 293.3,277.6 293.2,277.4C289.1,272.6 286.2,266.8 284.6,260.5C287,259.9 289.4,259.2 291.6,258.2C294.5,266.2 298.5,273.6 303.5,280.2C304.5,280.3 305.4,280.3 306.4,280.3C307.3,280.3 308.2,280.3 309,280.2C316,277.8 322.1,273.7 326.9,268.4C326.8,267.5 326.6,266.7 326.4,265.8C320,260 315.5,252.3 313.7,243.5C313.2,243 313.9,242 314.2,241.1C322.7,249.9 333.1,256.8 344.7,261.2C345.8,268.7 348.9,275.6 353.5,281.3C356.3,281.9 359.3,282.2 362.3,282.2C364.4,282.2 366.4,282.1 368.5,281.7C371.8,275.9 376.4,270.9 382,267.3L383,268C377.9,325.1 330.7,369.9 272.9,371.2Z" style="fill:white;fill-rule:nonzero;"/>
    </g>
</svg>
